<?xml version="1.0" encoding="UTF-8" standalone="no"?>
<svg xmlns="http://www.w3.org/2000/svg" version="1.1" width="124pt" height="100pt">
<rect x="0pt" y="0pt" width="124pt" height="100pt" style="fill:#ffffff;fill-opacity:1" />
<!-- Printing barcode for "9090360423", scaled  1.00, encoded using "ISBN" -->
<!-- The space/bar succession is represented by the following widths (space first): 911113123121211332112113321111111141111143211113221221411111 -->
<line x1="19.500000pt" y1="85.000000pt" x2="19.500000pt" y2="10.000000pt" style="stroke:rgb(0,0,0);stroke-width:0.850000pt" />
<line x1="21.500000pt" y1="85.000000pt" x2="21.500000pt" y2="10.000000pt" style="stroke:rgb(0,0,0);stroke-width:0.850000pt" />
<line x1="24.500000pt" y1="80.000000pt" x2="24.500000pt" y2="10.000000pt" style="stroke:rgb(0,0,0);stroke-width:2.850000pt" />
<line x1="28.000000pt" y1="80.000000pt" x2="28.000000pt" y2="10.000000pt" style="stroke:rgb(0,0,0);stroke-width:1.850000pt" />
<line x1="32.500000pt" y1="80.000000pt" x2="32.500000pt" y2="10.000000pt" style="stroke:rgb(0,0,0);stroke-width:0.850000pt" />
<line x1="35.500000pt" y1="80.000000pt" x2="35.500000pt" y2="10.000000pt" style="stroke:rgb(0,0,0);stroke-width:0.850000pt" />
<line x1="38.500000pt" y1="80.000000pt" x2="38.500000pt" y2="10.000000pt" style="stroke:rgb(0,0,0);stroke-width:0.850000pt" />
<line x1="41.500000pt" y1="80.000000pt" x2="41.500000pt" y2="10.000000pt" style="stroke:rgb(0,0,0);stroke-width:2.850000pt" />
<line x1="47.000000pt" y1="80.000000pt" x2="47.000000pt" y2="10.000000pt" style="stroke:rgb(0,0,0);stroke-width:1.850000pt" />
<line x1="49.500000pt" y1="80.000000pt" x2="49.500000pt" y2="10.000000pt" style="stroke:rgb(0,0,0);stroke-width:0.850000pt" />
<line x1="52.500000pt" y1="80.000000pt" x2="52.500000pt" y2="10.000000pt" style="stroke:rgb(0,0,0);stroke-width:0.850000pt" />
<line x1="55.500000pt" y1="80.000000pt" x2="55.500000pt" y2="10.000000pt" style="stroke:rgb(0,0,0);stroke-width:2.850000pt" />
<line x1="61.000000pt" y1="80.000000pt" x2="61.000000pt" y2="10.000000pt" style="stroke:rgb(0,0,0);stroke-width:1.850000pt" />
<line x1="63.500000pt" y1="80.000000pt" x2="63.500000pt" y2="10.000000pt" style="stroke:rgb(0,0,0);stroke-width:0.850000pt" />
<line x1="65.500000pt" y1="85.000000pt" x2="65.500000pt" y2="10.000000pt" style="stroke:rgb(0,0,0);stroke-width:0.850000pt" />
<line x1="67.500000pt" y1="85.000000pt" x2="67.500000pt" y2="10.000000pt" style="stroke:rgb(0,0,0);stroke-width:0.850000pt" />
<line x1="69.500000pt" y1="80.000000pt" x2="69.500000pt" y2="10.000000pt" style="stroke:rgb(0,0,0);stroke-width:0.850000pt" />
<line x1="74.500000pt" y1="80.000000pt" x2="74.500000pt" y2="10.000000pt" style="stroke:rgb(0,0,0);stroke-width:0.850000pt" />
<line x1="76.500000pt" y1="80.000000pt" x2="76.500000pt" y2="10.000000pt" style="stroke:rgb(0,0,0);stroke-width:0.850000pt" />
<line x1="78.500000pt" y1="80.000000pt" x2="78.500000pt" y2="10.000000pt" style="stroke:rgb(0,0,0);stroke-width:0.850000pt" />
<line x1="84.500000pt" y1="80.000000pt" x2="84.500000pt" y2="10.000000pt" style="stroke:rgb(0,0,0);stroke-width:2.850000pt" />
<line x1="88.500000pt" y1="80.000000pt" x2="88.500000pt" y2="10.000000pt" style="stroke:rgb(0,0,0);stroke-width:0.850000pt" />
<line x1="90.500000pt" y1="80.000000pt" x2="90.500000pt" y2="10.000000pt" style="stroke:rgb(0,0,0);stroke-width:0.850000pt" />
<line x1="93.500000pt" y1="80.000000pt" x2="93.500000pt" y2="10.000000pt" style="stroke:rgb(0,0,0);stroke-width:2.850000pt" />
<line x1="98.000000pt" y1="80.000000pt" x2="98.000000pt" y2="10.000000pt" style="stroke:rgb(0,0,0);stroke-width:1.850000pt" />
<line x1="101.000000pt" y1="80.000000pt" x2="101.000000pt" y2="10.000000pt" style="stroke:rgb(0,0,0);stroke-width:1.850000pt" />
<line x1="104.500000pt" y1="80.000000pt" x2="104.500000pt" y2="10.000000pt" style="stroke:rgb(0,0,0);stroke-width:0.850000pt" />
<line x1="109.500000pt" y1="80.000000pt" x2="109.500000pt" y2="10.000000pt" style="stroke:rgb(0,0,0);stroke-width:0.850000pt" />
<line x1="111.500000pt" y1="85.000000pt" x2="111.500000pt" y2="10.000000pt" style="stroke:rgb(0,0,0);stroke-width:0.850000pt" />
<line x1="113.500000pt" y1="85.000000pt" x2="113.500000pt" y2="10.000000pt" style="stroke:rgb(0,0,0);stroke-width:0.850000pt" />
<text x="10.000000pt" y="90.000000pt" fill="black" style="font-family:Helvetica;font-size:12pt">9</text>
<text x="22.000000pt" y="90.000000pt" fill="black" style="font-family:Helvetica;font-size:12pt">7</text>
<text x="29.000000pt" y="90.000000pt" fill="black" style="font-family:Helvetica;font-size:12pt">8</text>
<text x="36.000000pt" y="90.000000pt" fill="black" style="font-family:Helvetica;font-size:12pt">9</text>
<text x="43.000000pt" y="90.000000pt" fill="black" style="font-family:Helvetica;font-size:12pt">0</text>
<text x="50.000000pt" y="90.000000pt" fill="black" style="font-family:Helvetica;font-size:12pt">9</text>
<text x="57.000000pt" y="90.000000pt" fill="black" style="font-family:Helvetica;font-size:12pt">0</text>
<text x="69.000000pt" y="90.000000pt" fill="black" style="font-family:Helvetica;font-size:12pt">3</text>
<text x="76.000000pt" y="90.000000pt" fill="black" style="font-family:Helvetica;font-size:12pt">6</text>
<text x="83.000000pt" y="90.000000pt" fill="black" style="font-family:Helvetica;font-size:12pt">0</text>
<text x="90.000000pt" y="90.000000pt" fill="black" style="font-family:Helvetica;font-size:12pt">4</text>
<text x="97.000000pt" y="90.000000pt" fill="black" style="font-family:Helvetica;font-size:12pt">2</text>
<text x="104.000000pt" y="90.000000pt" fill="black" style="font-family:Helvetica;font-size:12pt">3</text>
<!-- End barcode for "9090360423" -->

</svg>
