<?xml version="1.0" encoding="UTF-8" standalone="no"?>
<svg xmlns="http://www.w3.org/2000/svg" version="1.1" width="115pt" height="89pt">
<rect x="0pt" y="0pt" width="115pt" height="89pt" style="fill:#ffffff;fill-opacity:1" />
<!-- Printing barcode for "9090360423", scaled  0.98, encoded using "ISBN" -->
<!-- The space/bar succession is represented by the following widths (space first): 911113123121211332112113321111111141111143211113221221411111 -->
<line x1="12.317308pt" y1="81.096154pt" x2="12.317308pt" y2="10.000000pt" style="stroke:rgb(0,0,0);stroke-width:0.830769pt" />
<line x1="14.278846pt" y1="81.096154pt" x2="14.278846pt" y2="10.000000pt" style="stroke:rgb(0,0,0);stroke-width:0.830769pt" />
<line x1="17.221154pt" y1="76.192308pt" x2="17.221154pt" y2="10.000000pt" style="stroke:rgb(0,0,0);stroke-width:2.792308pt" />
<line x1="20.653846pt" y1="76.192308pt" x2="20.653846pt" y2="10.000000pt" style="stroke:rgb(0,0,0);stroke-width:1.811538pt" />
<line x1="25.067308pt" y1="76.192308pt" x2="25.067308pt" y2="10.000000pt" style="stroke:rgb(0,0,0);stroke-width:0.830769pt" />
<line x1="28.009615pt" y1="76.192308pt" x2="28.009615pt" y2="10.000000pt" style="stroke:rgb(0,0,0);stroke-width:0.830769pt" />
<line x1="30.951923pt" y1="76.192308pt" x2="30.951923pt" y2="10.000000pt" style="stroke:rgb(0,0,0);stroke-width:0.830769pt" />
<line x1="33.894231pt" y1="76.192308pt" x2="33.894231pt" y2="10.000000pt" style="stroke:rgb(0,0,0);stroke-width:2.792308pt" />
<line x1="39.288462pt" y1="76.192308pt" x2="39.288462pt" y2="10.000000pt" style="stroke:rgb(0,0,0);stroke-width:1.811538pt" />
<line x1="41.740385pt" y1="76.192308pt" x2="41.740385pt" y2="10.000000pt" style="stroke:rgb(0,0,0);stroke-width:0.830769pt" />
<line x1="44.682692pt" y1="76.192308pt" x2="44.682692pt" y2="10.000000pt" style="stroke:rgb(0,0,0);stroke-width:0.830769pt" />
<line x1="47.625000pt" y1="76.192308pt" x2="47.625000pt" y2="10.000000pt" style="stroke:rgb(0,0,0);stroke-width:2.792308pt" />
<line x1="53.019231pt" y1="76.192308pt" x2="53.019231pt" y2="10.000000pt" style="stroke:rgb(0,0,0);stroke-width:1.811538pt" />
<line x1="55.471154pt" y1="76.192308pt" x2="55.471154pt" y2="10.000000pt" style="stroke:rgb(0,0,0);stroke-width:0.830769pt" />
<line x1="57.432692pt" y1="81.096154pt" x2="57.432692pt" y2="10.000000pt" style="stroke:rgb(0,0,0);stroke-width:0.830769pt" />
<line x1="59.394231pt" y1="81.096154pt" x2="59.394231pt" y2="10.000000pt" style="stroke:rgb(0,0,0);stroke-width:0.830769pt" />
<line x1="61.355769pt" y1="76.192308pt" x2="61.355769pt" y2="10.000000pt" style="stroke:rgb(0,0,0);stroke-width:0.830769pt" />
<line x1="66.259615pt" y1="76.192308pt" x2="66.259615pt" y2="10.000000pt" style="stroke:rgb(0,0,0);stroke-width:0.830769pt" />
<line x1="68.221154pt" y1="76.192308pt" x2="68.221154pt" y2="10.000000pt" style="stroke:rgb(0,0,0);stroke-width:0.830769pt" />
<line x1="70.182692pt" y1="76.192308pt" x2="70.182692pt" y2="10.000000pt" style="stroke:rgb(0,0,0);stroke-width:0.830769pt" />
<line x1="76.067308pt" y1="76.192308pt" x2="76.067308pt" y2="10.000000pt" style="stroke:rgb(0,0,0);stroke-width:2.792308pt" />
<line x1="79.990385pt" y1="76.192308pt" x2="79.990385pt" y2="10.000000pt" style="stroke:rgb(0,0,0);stroke-width:0.830769pt" />
<line x1="81.951923pt" y1="76.192308pt" x2="81.951923pt" y2="10.000000pt" style="stroke:rgb(0,0,0);stroke-width:0.830769pt" />
<line x1="84.894231pt" y1="76.192308pt" x2="84.894231pt" y2="10.000000pt" style="stroke:rgb(0,0,0);stroke-width:2.792308pt" />
<line x1="89.307692pt" y1="76.192308pt" x2="89.307692pt" y2="10.000000pt" style="stroke:rgb(0,0,0);stroke-width:1.811538pt" />
<line x1="92.250000pt" y1="76.192308pt" x2="92.250000pt" y2="10.000000pt" style="stroke:rgb(0,0,0);stroke-width:1.811538pt" />
<line x1="95.682692pt" y1="76.192308pt" x2="95.682692pt" y2="10.000000pt" style="stroke:rgb(0,0,0);stroke-width:0.830769pt" />
<line x1="100.586538pt" y1="76.192308pt" x2="100.586538pt" y2="10.000000pt" style="stroke:rgb(0,0,0);stroke-width:0.830769pt" />
<line x1="102.548077pt" y1="81.096154pt" x2="102.548077pt" y2="10.000000pt" style="stroke:rgb(0,0,0);stroke-width:0.830769pt" />
<line x1="104.509615pt" y1="81.096154pt" x2="104.509615pt" y2="10.000000pt" style="stroke:rgb(0,0,0);stroke-width:0.830769pt" />
<text x="3.000000pt" y="86.000000pt" fill="black" style="font-family:Helvetica;font-size:11pt">9</text>
<text x="14.769231pt" y="86.000000pt" fill="black" style="font-family:Helvetica;font-size:11pt">7</text>
<text x="21.634615pt" y="86.000000pt" fill="black" style="font-family:Helvetica;font-size:11pt">8</text>
<text x="28.500000pt" y="86.000000pt" fill="black" style="font-family:Helvetica;font-size:11pt">9</text>
<text x="35.365385pt" y="86.000000pt" fill="black" style="font-family:Helvetica;font-size:11pt">0</text>
<text x="42.230769pt" y="86.000000pt" fill="black" style="font-family:Helvetica;font-size:11pt">9</text>
<text x="49.096154pt" y="86.000000pt" fill="black" style="font-family:Helvetica;font-size:11pt">0</text>
<text x="60.865385pt" y="86.000000pt" fill="black" style="font-family:Helvetica;font-size:11pt">3</text>
<text x="67.730769pt" y="86.000000pt" fill="black" style="font-family:Helvetica;font-size:11pt">6</text>
<text x="74.596154pt" y="86.000000pt" fill="black" style="font-family:Helvetica;font-size:11pt">0</text>
<text x="81.461538pt" y="86.000000pt" fill="black" style="font-family:Helvetica;font-size:11pt">4</text>
<text x="88.326923pt" y="86.000000pt" fill="black" style="font-family:Helvetica;font-size:11pt">2</text>
<text x="95.192308pt" y="86.000000pt" fill="black" style="font-family:Helvetica;font-size:11pt">3</text>
<!-- End barcode for "9090360423" -->

</svg>
