<?xml version="1.0" encoding="UTF-8" standalone="no"?>
<!DOCTYPE svg PUBLIC "-//W3C//DTD SVG 1.1//EN"
 "http://www.w3.org/Graphics/SVG/1.1/DTD/svg11.dtd">
<!-- Generated by graphviz version 3.0.0 (20220226.1711)
 -->
<!-- Pages: 1 -->
<svg width="416pt" height="309pt"
 viewBox="0.00 0.00 415.60 309.24" xmlns="http://www.w3.org/2000/svg" xmlns:xlink="http://www.w3.org/1999/xlink">
<g id="graph0" class="graph" transform="scale(1 1) rotate(0) translate(4 305.24)">
<polygon fill="white" stroke="none" points="-4,4 -4,-305.24 411.6,-305.24 411.6,4 -4,4"/>
<!-- DEFINED -->
<g id="node1" class="node">
<title>DEFINED</title>
<path fill="none" stroke="black" stroke-width="2" d="M171.6,-294.62C171.6,-294.62 101.6,-294.62 101.6,-294.62 95.6,-294.62 89.6,-288.62 89.6,-282.62 89.6,-282.62 89.6,-270.62 89.6,-270.62 89.6,-264.62 95.6,-258.62 101.6,-258.62 101.6,-258.62 171.6,-258.62 171.6,-258.62 177.6,-258.62 183.6,-264.62 183.6,-270.62 183.6,-270.62 183.6,-282.62 183.6,-282.62 183.6,-288.62 177.6,-294.62 171.6,-294.62"/>
<text text-anchor="middle" x="136.6" y="-273.82" font-family="Times,serif" font-size="11.00">DEFINED</text>
</g>
<!-- DEFINED&#45;&gt;DEFINED -->
<g id="edge9" class="edge">
<title>DEFINED:sw&#45;&gt;DEFINED:nw</title>
<path fill="none" stroke="black" d="M89.6,-258.62C83.6,-248.12 71.6,-248.12 71.6,-276.62 71.6,-294.88 76.53,-301.44 81.65,-301.04"/>
<polygon fill="black" stroke="black" points="84.02,-303.63 89.6,-294.62 79.62,-298.18 84.02,-303.63"/>
</g>
<!-- STARTED -->
<g id="node2" class="node">
<title>STARTED</title>
<path fill="none" stroke="black" stroke-width="2" d="M171.6,-210.62C171.6,-210.62 101.6,-210.62 101.6,-210.62 95.6,-210.62 89.6,-204.62 89.6,-198.62 89.6,-198.62 89.6,-186.62 89.6,-186.62 89.6,-180.62 95.6,-174.62 101.6,-174.62 101.6,-174.62 171.6,-174.62 171.6,-174.62 177.6,-174.62 183.6,-180.62 183.6,-186.62 183.6,-186.62 183.6,-198.62 183.6,-198.62 183.6,-204.62 177.6,-210.62 171.6,-210.62"/>
<text text-anchor="middle" x="136.6" y="-189.82" font-family="Times,serif" font-size="11.00">STARTED</text>
</g>
<!-- DEFINED&#45;&gt;STARTED -->
<g id="edge1" class="edge">
<title>DEFINED&#45;&gt;STARTED</title>
<path fill="none" stroke="black" d="M136.6,-258.23C136.6,-247.4 136.6,-233.23 136.6,-220.92"/>
<polygon fill="black" stroke="black" points="140.1,-220.71 136.6,-210.71 133.1,-220.71 140.1,-220.71"/>
<text text-anchor="middle" x="186.6" y="-231.82" font-family="Times,serif" font-size="11.00"> height &gt;= start_height</text>
</g>
<!-- STARTED&#45;&gt;STARTED -->
<g id="edge10" class="edge">
<title>STARTED:sw&#45;&gt;STARTED:nw</title>
<path fill="none" stroke="black" d="M89.6,-174.62C83.6,-164.12 71.6,-164.12 71.6,-192.62 71.6,-210.88 76.53,-217.44 81.65,-217.04"/>
<polygon fill="black" stroke="black" points="84.02,-219.63 89.6,-210.62 79.62,-214.18 84.02,-219.63"/>
</g>
<!-- MUST_SIGNAL -->
<g id="node3" class="node">
<title>MUST_SIGNAL</title>
<path fill="none" stroke="black" stroke-width="2" d="M395.6,-210.62C395.6,-210.62 325.6,-210.62 325.6,-210.62 319.6,-210.62 313.6,-204.62 313.6,-198.62 313.6,-198.62 313.6,-186.62 313.6,-186.62 313.6,-180.62 319.6,-174.62 325.6,-174.62 325.6,-174.62 395.6,-174.62 395.6,-174.62 401.6,-174.62 407.6,-180.62 407.6,-186.62 407.6,-186.62 407.6,-198.62 407.6,-198.62 407.6,-204.62 401.6,-210.62 395.6,-210.62"/>
<text text-anchor="middle" x="360.6" y="-189.82" font-family="Times,serif" font-size="11.00">MUST_SIGNAL</text>
</g>
<!-- STARTED&#45;&gt;MUST_SIGNAL -->
<g id="edge2" class="edge">
<title>STARTED&#45;&gt;MUST_SIGNAL</title>
<path fill="none" stroke="black" d="M183.83,-192.62C218.68,-192.62 266.27,-192.62 303.29,-192.62"/>
<polygon fill="black" stroke="black" points="303.44,-196.13 313.44,-192.62 303.44,-189.13 303.44,-196.13"/>
<text text-anchor="middle" x="248.6" y="-210.82" font-family="Times,serif" font-size="11.00">height + 2016 &gt;= timeout</text>
<text text-anchor="middle" x="248.6" y="-198.82" font-family="Times,serif" font-size="11.00">AND lockinontimeout</text>
</g>
<!-- FAILED -->
<g id="node4" class="node">
<title>FAILED</title>
<path fill="none" stroke="black" stroke-width="2" d="M171.6,-41.62C171.6,-41.62 101.6,-41.62 101.6,-41.62 95.6,-41.62 89.6,-35.62 89.6,-29.62 89.6,-29.62 89.6,-17.62 89.6,-17.62 89.6,-11.62 95.6,-5.62 101.6,-5.62 101.6,-5.62 171.6,-5.62 171.6,-5.62 177.6,-5.62 183.6,-11.62 183.6,-17.62 183.6,-17.62 183.6,-29.63 183.6,-29.63 183.6,-35.62 177.6,-41.62 171.6,-41.62"/>
<text text-anchor="middle" x="136.6" y="-20.82" font-family="Times,serif" font-size="11.00">FAILED</text>
</g>
<!-- STARTED&#45;&gt;FAILED -->
<g id="edge3" class="edge">
<title>STARTED&#45;&gt;FAILED</title>
<path fill="none" stroke="black" d="M136.6,-174.38C136.6,-145.51 136.6,-87.13 136.6,-52.4"/>
<polygon fill="black" stroke="black" points="140.1,-52.02 136.6,-42.02 133.1,-52.02 140.1,-52.02"/>
<text text-anchor="middle" x="54.5" y="-67.22" font-family="Times,serif" font-size="11.00"> height &gt;= timeout AND</text>
<text text-anchor="middle" x="54.5" y="-55.22" font-family="Times,serif" font-size="11.00">NOT lockinontimeout</text>
</g>
<!-- LOCKED_IN -->
<g id="node5" class="node">
<title>LOCKED_IN</title>
<path fill="none" stroke="black" stroke-width="2" d="M395.6,-114.62C395.6,-114.62 325.6,-114.62 325.6,-114.62 319.6,-114.62 313.6,-108.62 313.6,-102.62 313.6,-102.62 313.6,-90.62 313.6,-90.62 313.6,-84.62 319.6,-78.62 325.6,-78.62 325.6,-78.62 395.6,-78.62 395.6,-78.62 401.6,-78.62 407.6,-84.62 407.6,-90.62 407.6,-90.62 407.6,-102.62 407.6,-102.62 407.6,-108.62 401.6,-114.62 395.6,-114.62"/>
<text text-anchor="middle" x="360.6" y="-93.83" font-family="Times,serif" font-size="11.00">LOCKED_IN</text>
</g>
<!-- STARTED&#45;&gt;LOCKED_IN -->
<g id="edge6" class="edge">
<title>STARTED&#45;&gt;LOCKED_IN</title>
<path fill="none" stroke="black" d="M159.2,-174.52C177.38,-161.45 204.04,-143.83 229.6,-132.62 253,-122.37 280.09,-114.52 303.55,-108.88"/>
<polygon fill="black" stroke="black" points="304.41,-112.27 313.36,-106.6 302.82,-105.45 304.41,-112.27"/>
<text text-anchor="middle" x="293.1" y="-147.82" font-family="Times,serif" font-size="11.00">height &lt; timeoutheight AND</text>
<text text-anchor="middle" x="293.1" y="-135.82" font-family="Times,serif" font-size="11.00">threshold reached</text>
</g>
<!-- MUST_SIGNAL&#45;&gt;LOCKED_IN -->
<g id="edge5" class="edge">
<title>MUST_SIGNAL&#45;&gt;LOCKED_IN</title>
<path fill="none" stroke="black" d="M360.6,-174.38C360.6,-160.6 360.6,-141.02 360.6,-125.09"/>
<polygon fill="black" stroke="black" points="364.1,-124.76 360.6,-114.76 357.1,-124.76 364.1,-124.76"/>
<text text-anchor="middle" x="378.1" y="-141.82" font-family="Times,serif" font-size="11.00"> always</text>
</g>
<!-- FAILED&#45;&gt;FAILED -->
<g id="edge12" class="edge">
<title>FAILED:sw&#45;&gt;FAILED:nw</title>
<path fill="none" stroke="black" d="M89.6,-5.62C83.6,3.38 71.6,3.38 71.6,-23.62 71.6,-40.08 76.06,-46.51 80.9,-46.98"/>
<polygon fill="black" stroke="black" points="82.92,-49.85 89.6,-41.62 79.25,-43.88 82.92,-49.85"/>
</g>
<!-- FAILED&#45;&gt;LOCKED_IN -->
<!-- LOCKED_IN&#45;&gt;LOCKED_IN -->
<g id="edge7" class="edge">
<title>LOCKED_IN:sw&#45;&gt;LOCKED_IN:nw</title>
<path fill="none" stroke="black" d="M313.6,-78.62C307.6,-69.62 295.6,-69.62 295.6,-96.62 295.6,-113.08 300.06,-119.51 304.9,-119.98"/>
<polygon fill="black" stroke="black" points="306.92,-122.85 313.6,-114.62 303.25,-116.88 306.92,-122.85"/>
<text text-anchor="middle" x="246.6" y="-99.83" font-family="Times,serif" font-size="11.00">height &lt;</text>
<text text-anchor="middle" x="246.6" y="-87.83" font-family="Times,serif" font-size="11.00">min_activation_height</text>
</g>
<!-- ACTIVE -->
<g id="node6" class="node">
<title>ACTIVE</title>
<path fill="none" stroke="black" stroke-width="2" d="M395.6,-41.62C395.6,-41.62 325.6,-41.62 325.6,-41.62 319.6,-41.62 313.6,-35.62 313.6,-29.62 313.6,-29.62 313.6,-17.62 313.6,-17.62 313.6,-11.62 319.6,-5.62 325.6,-5.62 325.6,-5.62 395.6,-5.62 395.6,-5.62 401.6,-5.62 407.6,-11.62 407.6,-17.62 407.6,-17.62 407.6,-29.63 407.6,-29.63 407.6,-35.62 401.6,-41.62 395.6,-41.62"/>
<text text-anchor="middle" x="360.6" y="-20.82" font-family="Times,serif" font-size="11.00">ACTIVE</text>
</g>
<!-- LOCKED_IN&#45;&gt;ACTIVE -->
<g id="edge4" class="edge">
<title>LOCKED_IN&#45;&gt;ACTIVE</title>
<path fill="none" stroke="black" d="M360.6,-78.44C360.6,-70.41 360.6,-60.67 360.6,-51.69"/>
<polygon fill="black" stroke="black" points="364.1,-51.65 360.6,-41.65 357.1,-51.65 364.1,-51.65"/>
<text text-anchor="middle" x="278.5" y="-60.85" font-family="Times,serif" font-size="11.00">height &gt;= min_activation_height</text>
</g>
<!-- ACTIVE&#45;&gt;ACTIVE -->
<g id="edge11" class="edge">
<title>ACTIVE:sw&#45;&gt;ACTIVE:nw</title>
<path fill="none" stroke="black" d="M313.6,-5.62C307.6,3.38 295.6,3.38 295.6,-23.62 295.6,-40.08 300.06,-46.51 304.9,-46.98"/>
<polygon fill="black" stroke="black" points="306.92,-49.85 313.6,-41.62 303.25,-43.88 306.92,-49.85"/>
</g>
</g>
</svg>
