<?xml version="1.0" encoding="UTF-8" standalone="no"?>
<!DOCTYPE svg PUBLIC "-//W3C//DTD SVG 1.1//EN"
 "http://www.w3.org/Graphics/SVG/1.1/DTD/svg11.dtd">
<!-- Generated by graphviz version 12.1.2 (20240928.0832)
 -->
<!-- Pages: 1 -->
<svg width="413pt" height="314pt"
 viewBox="0.00 0.00 412.53 313.69" xmlns="http://www.w3.org/2000/svg" xmlns:xlink="http://www.w3.org/1999/xlink">
<g id="graph0" class="graph" transform="scale(1 1) rotate(0) translate(4 309.69)">
<polygon fill="white" stroke="none" points="-4,4 -4,-309.69 408.53,-309.69 408.53,4 -4,4"/>
<!-- DEFINED -->
<g id="node1" class="node">
<title>DEFINED</title>
<path fill="none" stroke="black" stroke-width="2" d="M170.53,-299.22C170.53,-299.22 100.93,-299.22 100.93,-299.22 94.93,-299.22 88.93,-293.22 88.93,-287.22 88.93,-287.22 88.93,-275.22 88.93,-275.22 88.93,-269.22 94.93,-263.22 100.93,-263.22 100.93,-263.22 170.53,-263.22 170.53,-263.22 176.53,-263.22 182.53,-269.22 182.53,-275.22 182.53,-275.22 182.53,-287.22 182.53,-287.22 182.53,-293.22 176.53,-299.22 170.53,-299.22"/>
<text text-anchor="middle" x="135.73" y="-277.52" font-family="Times,serif" font-size="11.00">DEFINED</text>
</g>
<!-- DEFINED&#45;&gt;DEFINED -->
<g id="edge9" class="edge">
<title>DEFINED:sw&#45;&gt;DEFINED:nw</title>
<path fill="none" stroke="black" d="M88.93,-263.22C82.93,-252.53 70.93,-252.53 70.93,-281.22 70.93,-297.8 74.94,-304.8 79.48,-305.69"/>
<polygon fill="black" stroke="black" points="81.41,-308.61 87.68,-300.07 77.45,-302.84 81.41,-308.61"/>
</g>
<!-- STARTED -->
<g id="node2" class="node">
<title>STARTED</title>
<path fill="none" stroke="black" stroke-width="2" d="M170.53,-213.72C170.53,-213.72 100.93,-213.72 100.93,-213.72 94.93,-213.72 88.93,-207.72 88.93,-201.72 88.93,-201.72 88.93,-189.72 88.93,-189.72 88.93,-183.72 94.93,-177.72 100.93,-177.72 100.93,-177.72 170.53,-177.72 170.53,-177.72 176.53,-177.72 182.53,-183.72 182.53,-189.72 182.53,-189.72 182.53,-201.72 182.53,-201.72 182.53,-207.72 176.53,-213.72 170.53,-213.72"/>
<text text-anchor="middle" x="135.73" y="-192.02" font-family="Times,serif" font-size="11.00">STARTED</text>
</g>
<!-- DEFINED&#45;&gt;STARTED -->
<g id="edge1" class="edge">
<title>DEFINED&#45;&gt;STARTED</title>
<path fill="none" stroke="black" d="M135.73,-262.92C135.73,-252.06 135.73,-237.79 135.73,-225.28"/>
<polygon fill="black" stroke="black" points="139.23,-225.51 135.73,-215.51 132.23,-225.51 139.23,-225.51"/>
<text text-anchor="middle" x="185.6" y="-234.77" font-family="Times,serif" font-size="11.00"> height &gt;= start_height</text>
</g>
<!-- STARTED&#45;&gt;STARTED -->
<g id="edge10" class="edge">
<title>STARTED:sw&#45;&gt;STARTED:nw</title>
<path fill="none" stroke="black" d="M88.93,-177.72C82.93,-167.03 70.93,-167.03 70.93,-195.72 70.93,-212.3 74.94,-219.3 79.48,-220.19"/>
<polygon fill="black" stroke="black" points="81.41,-223.11 87.68,-214.57 77.45,-217.34 81.41,-223.11"/>
</g>
<!-- MUST_SIGNAL -->
<g id="node3" class="node">
<title>MUST_SIGNAL</title>
<path fill="none" stroke="black" stroke-width="2" d="M392.53,-213.72C392.53,-213.72 322.93,-213.72 322.93,-213.72 316.93,-213.72 310.93,-207.72 310.93,-201.72 310.93,-201.72 310.93,-189.72 310.93,-189.72 310.93,-183.72 316.93,-177.72 322.93,-177.72 322.93,-177.72 392.53,-177.72 392.53,-177.72 398.53,-177.72 404.53,-183.72 404.53,-189.72 404.53,-189.72 404.53,-201.72 404.53,-201.72 404.53,-207.72 398.53,-213.72 392.53,-213.72"/>
<text text-anchor="middle" x="357.73" y="-192.02" font-family="Times,serif" font-size="11.00">MUST_SIGNAL</text>
</g>
<!-- STARTED&#45;&gt;MUST_SIGNAL -->
<g id="edge2" class="edge">
<title>STARTED&#45;&gt;MUST_SIGNAL</title>
<path fill="none" stroke="black" d="M182.81,-195.72C216.8,-195.72 262.93,-195.72 299.28,-195.72"/>
<polygon fill="black" stroke="black" points="299.2,-199.22 309.2,-195.72 299.2,-192.22 299.2,-199.22"/>
<text text-anchor="middle" x="246.73" y="-215.27" font-family="Times,serif" font-size="11.00">height + 2016 &gt;= timeout</text>
<text text-anchor="middle" x="246.73" y="-201.77" font-family="Times,serif" font-size="11.00">AND lockinontimeout</text>
</g>
<!-- FAILED -->
<g id="node4" class="node">
<title>FAILED</title>
<path fill="none" stroke="black" stroke-width="2" d="M170.53,-41.72C170.53,-41.72 100.93,-41.72 100.93,-41.72 94.93,-41.72 88.93,-35.72 88.93,-29.72 88.93,-29.72 88.93,-17.72 88.93,-17.72 88.93,-11.72 94.93,-5.72 100.93,-5.72 100.93,-5.72 170.53,-5.72 170.53,-5.72 176.53,-5.72 182.53,-11.72 182.53,-17.72 182.53,-17.72 182.53,-29.72 182.53,-29.72 182.53,-35.72 176.53,-41.72 170.53,-41.72"/>
<text text-anchor="middle" x="135.73" y="-20.02" font-family="Times,serif" font-size="11.00">FAILED</text>
</g>
<!-- STARTED&#45;&gt;FAILED -->
<g id="edge3" class="edge">
<title>STARTED&#45;&gt;FAILED</title>
<path fill="none" stroke="black" d="M135.73,-177.48C135.73,-148.34 135.73,-89.02 135.73,-53.49"/>
<polygon fill="black" stroke="black" points="139.23,-53.51 135.73,-43.51 132.23,-53.51 139.23,-53.51"/>
<text text-anchor="middle" x="53.62" y="-67.05" font-family="Times,serif" font-size="11.00"> height &gt;= timeout AND</text>
<text text-anchor="middle" x="53.62" y="-53.55" font-family="Times,serif" font-size="11.00">NOT lockinontimeout</text>
</g>
<!-- LOCKED_IN -->
<g id="node5" class="node">
<title>LOCKED_IN</title>
<path fill="none" stroke="black" stroke-width="2" d="M392.53,-114.72C392.53,-114.72 322.93,-114.72 322.93,-114.72 316.93,-114.72 310.93,-108.72 310.93,-102.72 310.93,-102.72 310.93,-90.72 310.93,-90.72 310.93,-84.72 316.93,-78.72 322.93,-78.72 322.93,-78.72 392.53,-78.72 392.53,-78.72 398.53,-78.72 404.53,-84.72 404.53,-90.72 404.53,-90.72 404.53,-102.72 404.53,-102.72 404.53,-108.72 398.53,-114.72 392.53,-114.72"/>
<text text-anchor="middle" x="357.73" y="-93.02" font-family="Times,serif" font-size="11.00">LOCKED_IN</text>
</g>
<!-- STARTED&#45;&gt;LOCKED_IN -->
<g id="edge6" class="edge">
<title>STARTED&#45;&gt;LOCKED_IN</title>
<path fill="none" stroke="black" d="M157.39,-177.26C175.46,-163.45 202.38,-144.59 228.48,-132.72 250.94,-122.5 276.99,-114.74 299.8,-109.16"/>
<polygon fill="black" stroke="black" points="300.3,-112.64 309.23,-106.94 298.69,-105.82 300.3,-112.64"/>
<text text-anchor="middle" x="291.1" y="-149.27" font-family="Times,serif" font-size="11.00">height &lt; timeoutheight AND</text>
<text text-anchor="middle" x="291.1" y="-135.77" font-family="Times,serif" font-size="11.00">threshold reached</text>
</g>
<!-- MUST_SIGNAL&#45;&gt;LOCKED_IN -->
<g id="edge5" class="edge">
<title>MUST_SIGNAL&#45;&gt;LOCKED_IN</title>
<path fill="none" stroke="black" d="M357.73,-177.38C357.73,-163.17 357.73,-142.78 357.73,-126.18"/>
<polygon fill="black" stroke="black" points="361.23,-126.42 357.73,-116.42 354.23,-126.42 361.23,-126.42"/>
<text text-anchor="middle" x="374.98" y="-142.52" font-family="Times,serif" font-size="11.00"> always</text>
</g>
<!-- FAILED&#45;&gt;FAILED -->
<g id="edge12" class="edge">
<title>FAILED:sw&#45;&gt;FAILED:nw</title>
<path fill="none" stroke="black" d="M88.93,-5.72C82.93,3.41 70.93,3.41 70.93,-23.72 70.93,-38.55 74.52,-45.27 78.75,-46.83"/>
<polygon fill="black" stroke="black" points="80.21,-50.01 87.58,-42.4 77.07,-43.76 80.21,-50.01"/>
</g>
<!-- FAILED&#45;&gt;LOCKED_IN -->
<!-- LOCKED_IN&#45;&gt;LOCKED_IN -->
<g id="edge7" class="edge">
<title>LOCKED_IN:sw&#45;&gt;LOCKED_IN:nw</title>
<path fill="none" stroke="black" d="M310.93,-78.72C304.93,-69.59 292.93,-69.59 292.93,-96.72 292.93,-111.55 296.52,-118.27 300.75,-119.83"/>
<polygon fill="black" stroke="black" points="302.21,-123.01 309.58,-115.4 299.07,-116.76 302.21,-123.01"/>
<text text-anchor="middle" x="244.18" y="-99.77" font-family="Times,serif" font-size="11.00">height &lt;</text>
<text text-anchor="middle" x="244.18" y="-86.27" font-family="Times,serif" font-size="11.00">min_activation_height</text>
</g>
<!-- ACTIVE -->
<g id="node6" class="node">
<title>ACTIVE</title>
<path fill="none" stroke="black" stroke-width="2" d="M392.53,-41.72C392.53,-41.72 322.93,-41.72 322.93,-41.72 316.93,-41.72 310.93,-35.72 310.93,-29.72 310.93,-29.72 310.93,-17.72 310.93,-17.72 310.93,-11.72 316.93,-5.72 322.93,-5.72 322.93,-5.72 392.53,-5.72 392.53,-5.72 398.53,-5.72 404.53,-11.72 404.53,-17.72 404.53,-17.72 404.53,-29.72 404.53,-29.72 404.53,-35.72 398.53,-41.72 392.53,-41.72"/>
<text text-anchor="middle" x="357.73" y="-20.02" font-family="Times,serif" font-size="11.00">ACTIVE</text>
</g>
<!-- LOCKED_IN&#45;&gt;ACTIVE -->
<g id="edge4" class="edge">
<title>LOCKED_IN&#45;&gt;ACTIVE</title>
<path fill="none" stroke="black" d="M357.73,-78.53C357.73,-70.94 357.73,-61.82 357.73,-53.26"/>
<polygon fill="black" stroke="black" points="361.23,-53.26 357.73,-43.26 354.23,-53.26 361.23,-53.26"/>
<text text-anchor="middle" x="275.62" y="-60.05" font-family="Times,serif" font-size="11.00">height &gt;= min_activation_height</text>
</g>
<!-- ACTIVE&#45;&gt;ACTIVE -->
<g id="edge11" class="edge">
<title>ACTIVE:sw&#45;&gt;ACTIVE:nw</title>
<path fill="none" stroke="black" d="M310.93,-5.72C304.93,3.41 292.93,3.41 292.93,-23.72 292.93,-38.55 296.52,-45.27 300.75,-46.83"/>
<polygon fill="black" stroke="black" points="302.21,-50.01 309.58,-42.4 299.07,-43.76 302.21,-50.01"/>
</g>
</g>
</svg>
