<?xml version="1.0" encoding="UTF-8" standalone="no"?>
<!DOCTYPE svg PUBLIC "-//W3C//DTD SVG 1.1//EN"
 "http://www.w3.org/Graphics/SVG/1.1/DTD/svg11.dtd">
<!-- Generated by graphviz version 3.0.0 (20220226.1711)
 -->
<!-- Pages: 1 -->
<svg width="427pt" height="309pt"
 viewBox="0.00 0.00 427.10 309.24" xmlns="http://www.w3.org/2000/svg" xmlns:xlink="http://www.w3.org/1999/xlink">
<g id="graph0" class="graph" transform="scale(1 1) rotate(0) translate(4 305.24)">
<polygon fill="white" stroke="none" points="-4,4 -4,-305.24 423.1,-305.24 423.1,4 -4,4"/>
<!-- DEFINED -->
<g id="node1" class="node">
<title>DEFINED</title>
<path fill="none" stroke="black" stroke-width="2" d="M174.1,-294.62C174.1,-294.62 104.1,-294.62 104.1,-294.62 98.1,-294.62 92.1,-288.62 92.1,-282.62 92.1,-282.62 92.1,-270.62 92.1,-270.62 92.1,-264.62 98.1,-258.62 104.1,-258.62 104.1,-258.62 174.1,-258.62 174.1,-258.62 180.1,-258.62 186.1,-264.62 186.1,-270.62 186.1,-270.62 186.1,-282.62 186.1,-282.62 186.1,-288.62 180.1,-294.62 174.1,-294.62"/>
<text text-anchor="middle" x="139.1" y="-273.82" font-family="lmtt" font-size="11.00">DEFINED</text>
</g>
<!-- DEFINED&#45;&gt;DEFINED -->
<g id="edge9" class="edge">
<title>DEFINED:sw&#45;&gt;DEFINED:nw</title>
<path fill="none" stroke="black" d="M92.1,-258.62C86.1,-248.12 74.1,-248.12 74.1,-276.62 74.1,-294.88 79.03,-301.44 84.15,-301.04"/>
<polygon fill="black" stroke="black" points="86.52,-303.63 92.1,-294.62 82.12,-298.18 86.52,-303.63"/>
</g>
<!-- STARTED -->
<g id="node2" class="node">
<title>STARTED</title>
<path fill="none" stroke="black" stroke-width="2" d="M174.1,-210.62C174.1,-210.62 104.1,-210.62 104.1,-210.62 98.1,-210.62 92.1,-204.62 92.1,-198.62 92.1,-198.62 92.1,-186.62 92.1,-186.62 92.1,-180.62 98.1,-174.62 104.1,-174.62 104.1,-174.62 174.1,-174.62 174.1,-174.62 180.1,-174.62 186.1,-180.62 186.1,-186.62 186.1,-186.62 186.1,-198.62 186.1,-198.62 186.1,-204.62 180.1,-210.62 174.1,-210.62"/>
<text text-anchor="middle" x="139.1" y="-189.82" font-family="lmtt" font-size="11.00">STARTED</text>
</g>
<!-- DEFINED&#45;&gt;STARTED -->
<g id="edge1" class="edge">
<title>DEFINED&#45;&gt;STARTED</title>
<path fill="none" stroke="black" d="M139.1,-258.23C139.1,-247.4 139.1,-233.23 139.1,-220.92"/>
<polygon fill="black" stroke="black" points="142.6,-220.71 139.1,-210.71 135.6,-220.71 142.6,-220.71"/>
<text text-anchor="middle" x="193.6" y="-231.82" font-family="lmtt" font-size="11.00"> height &gt;= start_height</text>
</g>
<!-- STARTED&#45;&gt;STARTED -->
<g id="edge10" class="edge">
<title>STARTED:sw&#45;&gt;STARTED:nw</title>
<path fill="none" stroke="black" d="M92.1,-174.62C86.1,-164.12 74.1,-164.12 74.1,-192.62 74.1,-210.88 79.03,-217.44 84.15,-217.04"/>
<polygon fill="black" stroke="black" points="86.52,-219.63 92.1,-210.62 82.12,-214.18 86.52,-219.63"/>
</g>
<!-- MUST_SIGNAL -->
<g id="node3" class="node">
<title>MUST_SIGNAL</title>
<path fill="none" stroke="black" stroke-width="2" d="M407.1,-210.62C407.1,-210.62 337.1,-210.62 337.1,-210.62 331.1,-210.62 325.1,-204.62 325.1,-198.62 325.1,-198.62 325.1,-186.62 325.1,-186.62 325.1,-180.62 331.1,-174.62 337.1,-174.62 337.1,-174.62 407.1,-174.62 407.1,-174.62 413.1,-174.62 419.1,-180.62 419.1,-186.62 419.1,-186.62 419.1,-198.62 419.1,-198.62 419.1,-204.62 413.1,-210.62 407.1,-210.62"/>
<text text-anchor="middle" x="372.1" y="-189.82" font-family="lmtt" font-size="11.00">MUST_SIGNAL</text>
</g>
<!-- STARTED&#45;&gt;MUST_SIGNAL -->
<g id="edge2" class="edge">
<title>STARTED&#45;&gt;MUST_SIGNAL</title>
<path fill="none" stroke="black" d="M186.25,-192.62C223.44,-192.62 275.45,-192.62 315,-192.62"/>
<polygon fill="black" stroke="black" points="315.02,-196.13 325.02,-192.62 315.02,-189.13 315.02,-196.13"/>
<text text-anchor="middle" x="255.6" y="-210.82" font-family="lmtt" font-size="11.00">height + 2016 &gt;= timeout</text>
<text text-anchor="middle" x="255.6" y="-198.82" font-family="lmtt" font-size="11.00">AND lockinontimeout</text>
</g>
<!-- FAILED -->
<g id="node4" class="node">
<title>FAILED</title>
<path fill="none" stroke="black" stroke-width="2" d="M174.1,-41.62C174.1,-41.62 104.1,-41.62 104.1,-41.62 98.1,-41.62 92.1,-35.62 92.1,-29.62 92.1,-29.62 92.1,-17.62 92.1,-17.62 92.1,-11.62 98.1,-5.62 104.1,-5.62 104.1,-5.62 174.1,-5.62 174.1,-5.62 180.1,-5.62 186.1,-11.62 186.1,-17.62 186.1,-17.62 186.1,-29.63 186.1,-29.63 186.1,-35.62 180.1,-41.62 174.1,-41.62"/>
<text text-anchor="middle" x="139.1" y="-20.82" font-family="lmtt" font-size="11.00">FAILED</text>
</g>
<!-- STARTED&#45;&gt;FAILED -->
<g id="edge3" class="edge">
<title>STARTED&#45;&gt;FAILED</title>
<path fill="none" stroke="black" d="M139.1,-174.38C139.1,-145.51 139.1,-87.13 139.1,-52.4"/>
<polygon fill="black" stroke="black" points="142.6,-52.02 139.1,-42.02 135.6,-52.02 142.6,-52.02"/>
<text text-anchor="middle" x="57" y="-67.22" font-family="lmtt" font-size="11.00"> height &gt;= timeout AND</text>
<text text-anchor="middle" x="57" y="-55.22" font-family="lmtt" font-size="11.00">NOT lockinontimeout</text>
</g>
<!-- LOCKED_IN -->
<g id="node5" class="node">
<title>LOCKED_IN</title>
<path fill="none" stroke="black" stroke-width="2" d="M407.1,-114.62C407.1,-114.62 337.1,-114.62 337.1,-114.62 331.1,-114.62 325.1,-108.62 325.1,-102.62 325.1,-102.62 325.1,-90.62 325.1,-90.62 325.1,-84.62 331.1,-78.62 337.1,-78.62 337.1,-78.62 407.1,-78.62 407.1,-78.62 413.1,-78.62 419.1,-84.62 419.1,-90.62 419.1,-90.62 419.1,-102.62 419.1,-102.62 419.1,-108.62 413.1,-114.62 407.1,-114.62"/>
<text text-anchor="middle" x="372.1" y="-93.83" font-family="lmtt" font-size="11.00">LOCKED_IN</text>
</g>
<!-- STARTED&#45;&gt;LOCKED_IN -->
<g id="edge6" class="edge">
<title>STARTED&#45;&gt;LOCKED_IN</title>
<path fill="none" stroke="black" d="M162.48,-174.48C181.28,-161.39 208.8,-143.76 235.1,-132.62 260.44,-121.9 289.84,-113.85 314.9,-108.2"/>
<polygon fill="black" stroke="black" points="315.96,-111.55 324.99,-106 314.47,-104.71 315.96,-111.55"/>
<text text-anchor="middle" x="301.6" y="-147.82" font-family="lmtt" font-size="11.00">height &lt; timeoutheight AND</text>
<text text-anchor="middle" x="301.6" y="-135.82" font-family="lmtt" font-size="11.00">threshold reached</text>
</g>
<!-- MUST_SIGNAL&#45;&gt;LOCKED_IN -->
<g id="edge5" class="edge">
<title>MUST_SIGNAL&#45;&gt;LOCKED_IN</title>
<path fill="none" stroke="black" d="M372.1,-174.38C372.1,-160.6 372.1,-141.02 372.1,-125.09"/>
<polygon fill="black" stroke="black" points="375.6,-124.76 372.1,-114.76 368.6,-124.76 375.6,-124.76"/>
<text text-anchor="middle" x="390.6" y="-141.82" font-family="lmtt" font-size="11.00"> always</text>
</g>
<!-- FAILED&#45;&gt;FAILED -->
<g id="edge12" class="edge">
<title>FAILED:sw&#45;&gt;FAILED:nw</title>
<path fill="none" stroke="black" d="M92.1,-5.62C86.1,3.38 74.1,3.38 74.1,-23.62 74.1,-40.08 78.56,-46.51 83.4,-46.98"/>
<polygon fill="black" stroke="black" points="85.42,-49.85 92.1,-41.62 81.75,-43.88 85.42,-49.85"/>
</g>
<!-- FAILED&#45;&gt;LOCKED_IN -->
<!-- LOCKED_IN&#45;&gt;LOCKED_IN -->
<g id="edge7" class="edge">
<title>LOCKED_IN:sw&#45;&gt;LOCKED_IN:nw</title>
<path fill="none" stroke="black" d="M325.1,-78.62C319.1,-69.62 307.1,-69.62 307.1,-96.62 307.1,-113.08 311.56,-119.51 316.4,-119.98"/>
<polygon fill="black" stroke="black" points="318.42,-122.85 325.1,-114.62 314.75,-116.88 318.42,-122.85"/>
<text text-anchor="middle" x="255.1" y="-99.83" font-family="lmtt" font-size="11.00">height &lt;</text>
<text text-anchor="middle" x="255.1" y="-87.83" font-family="lmtt" font-size="11.00">min_activation_height</text>
</g>
<!-- ACTIVE -->
<g id="node6" class="node">
<title>ACTIVE</title>
<path fill="none" stroke="black" stroke-width="2" d="M407.1,-41.62C407.1,-41.62 337.1,-41.62 337.1,-41.62 331.1,-41.62 325.1,-35.62 325.1,-29.62 325.1,-29.62 325.1,-17.62 325.1,-17.62 325.1,-11.62 331.1,-5.62 337.1,-5.62 337.1,-5.62 407.1,-5.62 407.1,-5.62 413.1,-5.62 419.1,-11.62 419.1,-17.62 419.1,-17.62 419.1,-29.63 419.1,-29.63 419.1,-35.62 413.1,-41.62 407.1,-41.62"/>
<text text-anchor="middle" x="372.1" y="-20.82" font-family="lmtt" font-size="11.00">ACTIVE</text>
</g>
<!-- LOCKED_IN&#45;&gt;ACTIVE -->
<g id="edge4" class="edge">
<title>LOCKED_IN&#45;&gt;ACTIVE</title>
<path fill="none" stroke="black" d="M372.1,-78.44C372.1,-70.41 372.1,-60.67 372.1,-51.69"/>
<polygon fill="black" stroke="black" points="375.6,-51.65 372.1,-41.65 368.6,-51.65 375.6,-51.65"/>
<text text-anchor="middle" x="290" y="-60.85" font-family="lmtt" font-size="11.00">height &gt;= min_activation_height</text>
</g>
<!-- ACTIVE&#45;&gt;ACTIVE -->
<g id="edge11" class="edge">
<title>ACTIVE:sw&#45;&gt;ACTIVE:nw</title>
<path fill="none" stroke="black" d="M325.1,-5.62C319.1,3.38 307.1,3.38 307.1,-23.62 307.1,-40.08 311.56,-46.51 316.4,-46.98"/>
<polygon fill="black" stroke="black" points="318.42,-49.85 325.1,-41.62 314.75,-43.88 318.42,-49.85"/>
</g>
</g>
</svg>
