<?xml version="1.0" encoding="UTF-8" standalone="no"?>
<!DOCTYPE svg PUBLIC "-//W3C//DTD SVG 1.1//EN"
 "http://www.w3.org/Graphics/SVG/1.1/DTD/svg11.dtd">
<!-- Generated by graphviz version 12.1.2 (20240928.0832)
 -->
<!-- Pages: 1 -->
<svg width="295pt" height="314pt"
 viewBox="0.00 0.00 295.10 314.00" xmlns="http://www.w3.org/2000/svg" xmlns:xlink="http://www.w3.org/1999/xlink">
<g id="graph0" class="graph" transform="scale(1 1) rotate(0) translate(4 310)">
<polygon fill="white" stroke="none" points="-4,4 -4,-310 291.1,-310 291.1,4 -4,4"/>
<!-- DEFINED -->
<g id="node1" class="node">
<title>DEFINED</title>
<path fill="none" stroke="black" stroke-width="2" d="M81.6,-306C81.6,-306 12,-306 12,-306 6,-306 0,-300 0,-294 0,-294 0,-282 0,-282 0,-276 6,-270 12,-270 12,-270 81.6,-270 81.6,-270 87.6,-270 93.6,-276 93.6,-282 93.6,-282 93.6,-294 93.6,-294 93.6,-300 87.6,-306 81.6,-306"/>
<text text-anchor="middle" x="46.8" y="-284.3" font-family="Times,serif" font-size="11.00">DEFINED</text>
</g>
<!-- DEFINED&#45;&gt;DEFINED -->
<g id="edge6" class="edge">
<title>DEFINED&#45;&gt;DEFINED</title>
<path fill="none" stroke="black" d="M93.98,-295.78C104.19,-295.02 111.6,-292.43 111.6,-288 111.6,-285.44 109.12,-283.5 105.06,-282.16"/>
<polygon fill="black" stroke="black" points="105.93,-278.76 95.47,-280.48 104.72,-285.66 105.93,-278.76"/>
<text text-anchor="middle" x="149.48" y="-284.3" font-family="Times,serif" font-size="11.00"> MTP &lt; starttime</text>
</g>
<!-- STARTED -->
<g id="node2" class="node">
<title>STARTED</title>
<path fill="none" stroke="black" stroke-width="2" d="M81.6,-220.5C81.6,-220.5 12,-220.5 12,-220.5 6,-220.5 0,-214.5 0,-208.5 0,-208.5 0,-196.5 0,-196.5 0,-190.5 6,-184.5 12,-184.5 12,-184.5 81.6,-184.5 81.6,-184.5 87.6,-184.5 93.6,-190.5 93.6,-196.5 93.6,-196.5 93.6,-208.5 93.6,-208.5 93.6,-214.5 87.6,-220.5 81.6,-220.5"/>
<text text-anchor="middle" x="46.8" y="-198.8" font-family="Times,serif" font-size="11.00">STARTED</text>
</g>
<!-- DEFINED&#45;&gt;STARTED -->
<g id="edge1" class="edge">
<title>DEFINED&#45;&gt;STARTED</title>
<path fill="none" stroke="black" d="M46.8,-269.7C46.8,-258.84 46.8,-244.57 46.8,-232.06"/>
<polygon fill="black" stroke="black" points="50.3,-232.29 46.8,-222.29 43.3,-232.29 50.3,-232.29"/>
<text text-anchor="middle" x="87.68" y="-241.55" font-family="Times,serif" font-size="11.00"> MTP &gt;= starttime</text>
</g>
<!-- STARTED&#45;&gt;STARTED -->
<g id="edge7" class="edge">
<title>STARTED&#45;&gt;STARTED</title>
<path fill="none" stroke="black" d="M93.98,-210.28C104.19,-209.52 111.6,-206.93 111.6,-202.5 111.6,-199.94 109.12,-198 105.06,-196.66"/>
<polygon fill="black" stroke="black" points="105.93,-193.26 95.47,-194.98 104.72,-200.16 105.93,-193.26"/>
<text text-anchor="middle" x="199.35" y="-198.8" font-family="Times,serif" font-size="11.00"> count &lt; threshold AND MTP &lt; timeout</text>
</g>
<!-- FAILED -->
<g id="node3" class="node">
<title>FAILED</title>
<path fill="none" stroke="black" stroke-width="2" d="M81.6,-121.5C81.6,-121.5 12,-121.5 12,-121.5 6,-121.5 0,-115.5 0,-109.5 0,-109.5 0,-97.5 0,-97.5 0,-91.5 6,-85.5 12,-85.5 12,-85.5 81.6,-85.5 81.6,-85.5 87.6,-85.5 93.6,-91.5 93.6,-97.5 93.6,-97.5 93.6,-109.5 93.6,-109.5 93.6,-115.5 87.6,-121.5 81.6,-121.5"/>
<text text-anchor="middle" x="46.8" y="-99.8" font-family="Times,serif" font-size="11.00">FAILED</text>
</g>
<!-- STARTED&#45;&gt;FAILED -->
<g id="edge2" class="edge">
<title>STARTED&#45;&gt;FAILED</title>
<path fill="none" stroke="black" d="M46.8,-184.16C46.8,-169.95 46.8,-149.56 46.8,-132.96"/>
<polygon fill="black" stroke="black" points="50.3,-133.21 46.8,-123.21 43.3,-133.21 50.3,-133.21"/>
<text text-anchor="middle" x="86.55" y="-156.05" font-family="Times,serif" font-size="11.00"> count &lt; threshold</text>
<text text-anchor="middle" x="86.55" y="-142.55" font-family="Times,serif" font-size="11.00">MTP &gt;= timeout</text>
</g>
<!-- LOCKED_IN -->
<g id="node4" class="node">
<title>LOCKED_IN</title>
<path fill="none" stroke="black" stroke-width="2" d="M228.6,-121.5C228.6,-121.5 159,-121.5 159,-121.5 153,-121.5 147,-115.5 147,-109.5 147,-109.5 147,-97.5 147,-97.5 147,-91.5 153,-85.5 159,-85.5 159,-85.5 228.6,-85.5 228.6,-85.5 234.6,-85.5 240.6,-91.5 240.6,-97.5 240.6,-97.5 240.6,-109.5 240.6,-109.5 240.6,-115.5 234.6,-121.5 228.6,-121.5"/>
<text text-anchor="middle" x="193.8" y="-99.8" font-family="Times,serif" font-size="11.00">LOCKED_IN</text>
</g>
<!-- STARTED&#45;&gt;LOCKED_IN -->
<g id="edge4" class="edge">
<title>STARTED&#45;&gt;LOCKED_IN</title>
<path fill="none" stroke="black" d="M93.76,-185.64C106.29,-180.43 119.48,-174.02 130.8,-166.5 145.92,-156.46 160.52,-142.46 171.85,-130.3"/>
<polygon fill="black" stroke="black" points="174.36,-132.75 178.47,-122.99 169.17,-128.06 174.36,-132.75"/>
<text text-anchor="middle" x="203.49" y="-149.3" font-family="Times,serif" font-size="11.00">count &gt;= threshold</text>
</g>
<!-- FAILED&#45;&gt;FAILED -->
<g id="edge9" class="edge">
<title>FAILED&#45;&gt;FAILED</title>
<path fill="none" stroke="black" d="M93.98,-111.28C104.19,-110.52 111.6,-107.93 111.6,-103.5 111.6,-100.94 109.12,-99 105.06,-97.66"/>
<polygon fill="black" stroke="black" points="105.93,-94.26 95.47,-95.98 104.72,-101.16 105.93,-94.26"/>
</g>
<!-- FAILED&#45;&gt;LOCKED_IN -->
<!-- ACTIVE -->
<g id="node5" class="node">
<title>ACTIVE</title>
<path fill="none" stroke="black" stroke-width="2" d="M228.6,-36C228.6,-36 159,-36 159,-36 153,-36 147,-30 147,-24 147,-24 147,-12 147,-12 147,-6 153,0 159,0 159,0 228.6,0 228.6,0 234.6,0 240.6,-6 240.6,-12 240.6,-12 240.6,-24 240.6,-24 240.6,-30 234.6,-36 228.6,-36"/>
<text text-anchor="middle" x="193.8" y="-14.3" font-family="Times,serif" font-size="11.00">ACTIVE</text>
</g>
<!-- LOCKED_IN&#45;&gt;ACTIVE -->
<g id="edge3" class="edge">
<title>LOCKED_IN&#45;&gt;ACTIVE</title>
<path fill="none" stroke="black" d="M193.8,-85.2C193.8,-74.34 193.8,-60.07 193.8,-47.56"/>
<polygon fill="black" stroke="black" points="197.3,-47.79 193.8,-37.79 190.3,-47.79 197.3,-47.79"/>
<text text-anchor="middle" x="211.05" y="-57.05" font-family="Times,serif" font-size="11.00"> always</text>
</g>
<!-- ACTIVE&#45;&gt;ACTIVE -->
<g id="edge8" class="edge">
<title>ACTIVE&#45;&gt;ACTIVE</title>
<path fill="none" stroke="black" d="M240.98,-25.78C251.19,-25.02 258.6,-22.43 258.6,-18 258.6,-15.44 256.12,-13.5 252.06,-12.16"/>
<polygon fill="black" stroke="black" points="252.93,-8.76 242.47,-10.48 251.72,-15.66 252.93,-8.76"/>
</g>
</g>
</svg>
