<?xml version="1.0" encoding="UTF-8" standalone="no"?>
<!DOCTYPE svg PUBLIC "-//W3C//DTD SVG 1.1//EN"
 "http://www.w3.org/Graphics/SVG/1.1/DTD/svg11.dtd">
<!-- Generated by graphviz version 3.0.0 (20220226.1711)
 -->
<!-- Pages: 1 -->
<svg width="307pt" height="308pt"
 viewBox="0.00 0.00 307.00 308.00" xmlns="http://www.w3.org/2000/svg" xmlns:xlink="http://www.w3.org/1999/xlink">
<g id="graph0" class="graph" transform="scale(1 1) rotate(0) translate(4 304)">
<polygon fill="white" stroke="none" points="-4,4 -4,-304 303,-304 303,4 -4,4"/>
<!-- DEFINED -->
<g id="node1" class="node">
<title>DEFINED</title>
<path fill="none" stroke="black" stroke-width="2" d="M82,-300C82,-300 12,-300 12,-300 6,-300 0,-294 0,-288 0,-288 0,-276 0,-276 0,-270 6,-264 12,-264 12,-264 82,-264 82,-264 88,-264 94,-270 94,-276 94,-276 94,-288 94,-288 94,-294 88,-300 82,-300"/>
<text text-anchor="middle" x="47" y="-279.2" font-family="lmtt" font-size="11.00">DEFINED</text>
</g>
<!-- DEFINED&#45;&gt;DEFINED -->
<g id="edge6" class="edge">
<title>DEFINED&#45;&gt;DEFINED</title>
<path fill="none" stroke="black" d="M94.04,-289.66C104.43,-288.94 112,-286.39 112,-282 112,-279.19 108.89,-277.13 103.93,-275.82"/>
<polygon fill="black" stroke="black" points="104.44,-272.36 94.04,-274.34 103.4,-279.28 104.44,-272.36"/>
<text text-anchor="middle" x="152.5" y="-279.2" font-family="lmtt" font-size="11.00"> MTP &lt; starttime</text>
</g>
<!-- STARTED -->
<g id="node2" class="node">
<title>STARTED</title>
<path fill="none" stroke="black" stroke-width="2" d="M82,-216C82,-216 12,-216 12,-216 6,-216 0,-210 0,-204 0,-204 0,-192 0,-192 0,-186 6,-180 12,-180 12,-180 82,-180 82,-180 88,-180 94,-186 94,-192 94,-192 94,-204 94,-204 94,-210 88,-216 82,-216"/>
<text text-anchor="middle" x="47" y="-195.2" font-family="lmtt" font-size="11.00">STARTED</text>
</g>
<!-- DEFINED&#45;&gt;STARTED -->
<g id="edge1" class="edge">
<title>DEFINED&#45;&gt;STARTED</title>
<path fill="none" stroke="black" d="M47,-263.61C47,-252.77 47,-238.6 47,-226.29"/>
<polygon fill="black" stroke="black" points="50.5,-226.08 47,-216.08 43.5,-226.08 50.5,-226.08"/>
<text text-anchor="middle" x="91" y="-237.2" font-family="lmtt" font-size="11.00"> MTP &gt;= starttime</text>
</g>
<!-- STARTED&#45;&gt;STARTED -->
<g id="edge7" class="edge">
<title>STARTED&#45;&gt;STARTED</title>
<path fill="none" stroke="black" d="M94.04,-205.66C104.43,-204.94 112,-202.39 112,-198 112,-195.19 108.89,-193.13 103.93,-191.82"/>
<polygon fill="black" stroke="black" points="104.44,-188.36 94.04,-190.34 103.4,-195.28 104.44,-188.36"/>
<text text-anchor="middle" x="205.5" y="-195.2" font-family="lmtt" font-size="11.00"> count &lt; threshold AND MTP &lt; timeout</text>
</g>
<!-- FAILED -->
<g id="node3" class="node">
<title>FAILED</title>
<path fill="none" stroke="black" stroke-width="2" d="M82,-120C82,-120 12,-120 12,-120 6,-120 0,-114 0,-108 0,-108 0,-96 0,-96 0,-90 6,-84 12,-84 12,-84 82,-84 82,-84 88,-84 94,-90 94,-96 94,-96 94,-108 94,-108 94,-114 88,-120 82,-120"/>
<text text-anchor="middle" x="47" y="-99.2" font-family="lmtt" font-size="11.00">FAILED</text>
</g>
<!-- STARTED&#45;&gt;FAILED -->
<g id="edge2" class="edge">
<title>STARTED&#45;&gt;FAILED</title>
<path fill="none" stroke="black" d="M47,-179.76C47,-165.98 47,-146.4 47,-130.47"/>
<polygon fill="black" stroke="black" points="50.5,-130.13 47,-120.13 43.5,-130.13 50.5,-130.13"/>
<text text-anchor="middle" x="90.5" y="-153.2" font-family="lmtt" font-size="11.00"> count &lt; threshold</text>
<text text-anchor="middle" x="90.5" y="-141.2" font-family="lmtt" font-size="11.00">MTP &gt;= timeout</text>
</g>
<!-- LOCKED_IN -->
<g id="node4" class="node">
<title>LOCKED_IN</title>
<path fill="none" stroke="black" stroke-width="2" d="M230,-120C230,-120 160,-120 160,-120 154,-120 148,-114 148,-108 148,-108 148,-96 148,-96 148,-90 154,-84 160,-84 160,-84 230,-84 230,-84 236,-84 242,-90 242,-96 242,-96 242,-108 242,-108 242,-114 236,-120 230,-120"/>
<text text-anchor="middle" x="195" y="-99.2" font-family="lmtt" font-size="11.00">LOCKED_IN</text>
</g>
<!-- STARTED&#45;&gt;LOCKED_IN -->
<g id="edge4" class="edge">
<title>STARTED&#45;&gt;LOCKED_IN</title>
<path fill="none" stroke="black" d="M94.27,-183.25C108.94,-177.84 124.73,-170.78 138,-162 151.99,-152.74 165.18,-139.5 175.33,-127.92"/>
<polygon fill="black" stroke="black" points="178.06,-130.12 181.86,-120.23 172.72,-125.59 178.06,-130.12"/>
<text text-anchor="middle" x="211.5" y="-147.2" font-family="lmtt" font-size="11.00">count &gt;= threshold</text>
</g>
<!-- FAILED&#45;&gt;FAILED -->
<g id="edge9" class="edge">
<title>FAILED&#45;&gt;FAILED</title>
<path fill="none" stroke="black" d="M94.04,-109.66C104.43,-108.94 112,-106.39 112,-102 112,-99.19 108.89,-97.13 103.93,-95.82"/>
<polygon fill="black" stroke="black" points="104.44,-92.36 94.04,-94.34 103.4,-99.28 104.44,-92.36"/>
</g>
<!-- FAILED&#45;&gt;LOCKED_IN -->
<!-- ACTIVE -->
<g id="node5" class="node">
<title>ACTIVE</title>
<path fill="none" stroke="black" stroke-width="2" d="M230,-36C230,-36 160,-36 160,-36 154,-36 148,-30 148,-24 148,-24 148,-12 148,-12 148,-6 154,0 160,0 160,0 230,0 230,0 236,0 242,-6 242,-12 242,-12 242,-24 242,-24 242,-30 236,-36 230,-36"/>
<text text-anchor="middle" x="195" y="-15.2" font-family="lmtt" font-size="11.00">ACTIVE</text>
</g>
<!-- LOCKED_IN&#45;&gt;ACTIVE -->
<g id="edge3" class="edge">
<title>LOCKED_IN&#45;&gt;ACTIVE</title>
<path fill="none" stroke="black" d="M195,-83.61C195,-72.77 195,-58.6 195,-46.29"/>
<polygon fill="black" stroke="black" points="198.5,-46.08 195,-36.08 191.5,-46.08 198.5,-46.08"/>
<text text-anchor="middle" x="213.5" y="-57.2" font-family="lmtt" font-size="11.00"> always</text>
</g>
<!-- ACTIVE&#45;&gt;ACTIVE -->
<g id="edge8" class="edge">
<title>ACTIVE&#45;&gt;ACTIVE</title>
<path fill="none" stroke="black" d="M242.04,-25.66C252.43,-24.94 260,-22.39 260,-18 260,-15.19 256.89,-13.13 251.93,-11.82"/>
<polygon fill="black" stroke="black" points="252.44,-8.36 242.04,-10.34 251.4,-15.28 252.44,-8.36"/>
</g>
</g>
</svg>
