<?xml version="1.0" encoding="UTF-8" standalone="no"?>
<!DOCTYPE svg PUBLIC "-//W3C//DTD SVG 1.1//EN"
 "http://www.w3.org/Graphics/SVG/1.1/DTD/svg11.dtd">
<!-- Generated by graphviz version 3.0.0 (20220226.1711)
 -->
<!-- Pages: 1 -->
<svg width="188pt" height="128pt"
 viewBox="0.00 0.00 188.00 128.00" xmlns="http://www.w3.org/2000/svg" xmlns:xlink="http://www.w3.org/1999/xlink">
<g id="graph0" class="graph" transform="scale(1 1) rotate(0) translate(4 124)">
<polygon fill="white" stroke="transparent" points="-4,4 -4,-124 184,-124 184,4 -4,4"/>
<!-- DEFINED -->
<g id="node1" class="node">
<title>DEFINED</title>
<path fill="lightgrey" stroke="black" stroke-width="2" d="M82,-120C82,-120 12,-120 12,-120 6,-120 0,-114 0,-108 0,-108 0,-96 0,-96 0,-90 6,-84 12,-84 12,-84 82,-84 82,-84 88,-84 94,-90 94,-96 94,-96 94,-108 94,-108 94,-114 88,-120 82,-120"/>
<text text-anchor="middle" x="47" y="-99.2" font-family="lmtt" font-size="11.00">DEFINED</text>
</g>
<!-- ACTIVE -->
<g id="node2" class="node">
<title>ACTIVE</title>
<path fill="#a0ffa0" stroke="black" stroke-width="2" d="M82,-36C82,-36 12,-36 12,-36 6,-36 0,-30 0,-24 0,-24 0,-12 0,-12 0,-6 6,0 12,0 12,0 82,0 82,0 88,0 94,-6 94,-12 94,-12 94,-24 94,-24 94,-30 88,-36 82,-36"/>
<text text-anchor="middle" x="47" y="-15.2" font-family="lmtt" font-size="11.00">ACTIVE</text>
</g>
<!-- DEFINED&#45;&gt;ACTIVE -->
<g id="edge1" class="edge">
<title>DEFINED&#45;&gt;ACTIVE</title>
<path fill="none" stroke="black" d="M47,-83.61C47,-72.77 47,-58.6 47,-46.29"/>
<polygon fill="black" stroke="black" points="50.5,-46.08 47,-36.08 43.5,-46.08 50.5,-46.08"/>
<text text-anchor="middle" x="113.5" y="-57.2" font-family="lmtt" font-size="11.00"> height &gt;= activation_height</text>
</g>
</g>
</svg>
