<?xml version="1.0" encoding="UTF-8" standalone="no"?>
<!DOCTYPE svg PUBLIC "-//W3C//DTD SVG 1.1//EN"
 "http://www.w3.org/Graphics/SVG/1.1/DTD/svg11.dtd">
<!-- Generated by graphviz version 12.1.2 (20240928.0832)
 -->
<!-- Pages: 1 -->
<svg width="179pt" height="130pt"
 viewBox="0.00 0.00 178.55 129.50" xmlns="http://www.w3.org/2000/svg" xmlns:xlink="http://www.w3.org/1999/xlink">
<g id="graph0" class="graph" transform="scale(1 1) rotate(0) translate(4 125.5)">
<polygon fill="white" stroke="none" points="-4,4 -4,-125.5 174.55,-125.5 174.55,4 -4,4"/>
<!-- DEFINED -->
<g id="node1" class="node">
<title>DEFINED</title>
<path fill="none" stroke="black" stroke-width="2" d="M81.6,-121.5C81.6,-121.5 12,-121.5 12,-121.5 6,-121.5 0,-115.5 0,-109.5 0,-109.5 0,-97.5 0,-97.5 0,-91.5 6,-85.5 12,-85.5 12,-85.5 81.6,-85.5 81.6,-85.5 87.6,-85.5 93.6,-91.5 93.6,-97.5 93.6,-97.5 93.6,-109.5 93.6,-109.5 93.6,-115.5 87.6,-121.5 81.6,-121.5"/>
<text text-anchor="middle" x="46.8" y="-99.8" font-family="Times,serif" font-size="11.00">DEFINED</text>
</g>
<!-- ACTIVE -->
<g id="node2" class="node">
<title>ACTIVE</title>
<path fill="none" stroke="black" stroke-width="2" d="M81.6,-36C81.6,-36 12,-36 12,-36 6,-36 0,-30 0,-24 0,-24 0,-12 0,-12 0,-6 6,0 12,0 12,0 81.6,0 81.6,0 87.6,0 93.6,-6 93.6,-12 93.6,-12 93.6,-24 93.6,-24 93.6,-30 87.6,-36 81.6,-36"/>
<text text-anchor="middle" x="46.8" y="-14.3" font-family="Times,serif" font-size="11.00">ACTIVE</text>
</g>
<!-- DEFINED&#45;&gt;ACTIVE -->
<g id="edge1" class="edge">
<title>DEFINED&#45;&gt;ACTIVE</title>
<path fill="none" stroke="black" d="M46.8,-85.2C46.8,-74.34 46.8,-60.07 46.8,-47.56"/>
<polygon fill="black" stroke="black" points="50.3,-47.79 46.8,-37.79 43.3,-47.79 50.3,-47.79"/>
<text text-anchor="middle" x="108.68" y="-57.05" font-family="Times,serif" font-size="11.00"> height &gt;= activation_height</text>
</g>
</g>
</svg>
