<?xml version="1.0" encoding="UTF-8" standalone="no"?>
<!DOCTYPE svg PUBLIC "-//W3C//DTD SVG 1.1//EN"
 "http://www.w3.org/Graphics/SVG/1.1/DTD/svg11.dtd">
<!-- Generated by graphviz version 3.0.0 (20220226.1711)
 -->
<!-- Pages: 1 -->
<svg width="375pt" height="320pt"
 viewBox="0.00 0.00 375.00 320.00" xmlns="http://www.w3.org/2000/svg" xmlns:xlink="http://www.w3.org/1999/xlink">
<g id="graph0" class="graph" transform="scale(1 1) rotate(0) translate(4 316)">
<polygon fill="white" stroke="none" points="-4,4 -4,-316 371,-316 371,4 -4,4"/>
<!-- DEFINED -->
<g id="node1" class="node">
<title>DEFINED</title>
<path fill="none" stroke="black" stroke-width="2" d="M82,-312C82,-312 12,-312 12,-312 6,-312 0,-306 0,-300 0,-300 0,-288 0,-288 0,-282 6,-276 12,-276 12,-276 82,-276 82,-276 88,-276 94,-282 94,-288 94,-288 94,-300 94,-300 94,-306 88,-312 82,-312"/>
<text text-anchor="middle" x="47" y="-291.2" font-family="lmtt" font-size="11.00">DEFINED</text>
</g>
<!-- DEFINED&#45;&gt;DEFINED -->
<g id="edge7" class="edge">
<title>DEFINED&#45;&gt;DEFINED</title>
<path fill="none" stroke="black" d="M94.04,-301.66C104.43,-300.94 112,-298.39 112,-294 112,-291.19 108.89,-289.13 103.93,-287.82"/>
<polygon fill="black" stroke="black" points="104.44,-284.36 94.04,-286.34 103.4,-291.28 104.44,-284.36"/>
<text text-anchor="middle" x="152.5" y="-291.2" font-family="lmtt" font-size="11.00"> MTP &lt; starttime</text>
</g>
<!-- STARTED -->
<g id="node2" class="node">
<title>STARTED</title>
<path fill="none" stroke="black" stroke-width="2" d="M82,-228C82,-228 12,-228 12,-228 6,-228 0,-222 0,-216 0,-216 0,-204 0,-204 0,-198 6,-192 12,-192 12,-192 82,-192 82,-192 88,-192 94,-198 94,-204 94,-204 94,-216 94,-216 94,-222 88,-228 82,-228"/>
<text text-anchor="middle" x="47" y="-207.2" font-family="lmtt" font-size="11.00">STARTED</text>
</g>
<!-- DEFINED&#45;&gt;STARTED -->
<g id="edge1" class="edge">
<title>DEFINED&#45;&gt;STARTED</title>
<path fill="none" stroke="black" d="M47,-275.61C47,-264.77 47,-250.6 47,-238.29"/>
<polygon fill="black" stroke="black" points="50.5,-238.08 47,-228.08 43.5,-238.08 50.5,-238.08"/>
<text text-anchor="middle" x="91" y="-249.2" font-family="lmtt" font-size="11.00"> MTP &gt;= starttime</text>
</g>
<!-- STARTED&#45;&gt;STARTED -->
<g id="edge8" class="edge">
<title>STARTED&#45;&gt;STARTED</title>
<path fill="none" stroke="black" d="M94.04,-217.66C104.43,-216.94 112,-214.39 112,-210 112,-207.19 108.89,-205.13 103.93,-203.82"/>
<polygon fill="black" stroke="black" points="104.44,-200.36 94.04,-202.34 103.4,-207.28 104.44,-200.36"/>
<text text-anchor="middle" x="155.5" y="-213.2" font-family="lmtt" font-size="11.00"> count &lt; threshold</text>
<text text-anchor="middle" x="155.5" y="-201.2" font-family="lmtt" font-size="11.00">MTP &lt; timeout</text>
</g>
<!-- FAILED -->
<g id="node3" class="node">
<title>FAILED</title>
<path fill="none" stroke="black" stroke-width="2" d="M82,-132C82,-132 12,-132 12,-132 6,-132 0,-126 0,-120 0,-120 0,-108 0,-108 0,-102 6,-96 12,-96 12,-96 82,-96 82,-96 88,-96 94,-102 94,-108 94,-108 94,-120 94,-120 94,-126 88,-132 82,-132"/>
<text text-anchor="middle" x="47" y="-111.2" font-family="lmtt" font-size="11.00">FAILED</text>
</g>
<!-- STARTED&#45;&gt;FAILED -->
<g id="edge2" class="edge">
<title>STARTED&#45;&gt;FAILED</title>
<path fill="none" stroke="black" d="M47,-191.76C47,-177.98 47,-158.4 47,-142.47"/>
<polygon fill="black" stroke="black" points="50.5,-142.13 47,-132.13 43.5,-142.13 50.5,-142.13"/>
<text text-anchor="middle" x="90.5" y="-165.2" font-family="lmtt" font-size="11.00"> count &lt; threshold</text>
<text text-anchor="middle" x="90.5" y="-153.2" font-family="lmtt" font-size="11.00">MTP &gt;= timeout</text>
</g>
<!-- LOCKED_IN -->
<g id="node4" class="node">
<title>LOCKED_IN</title>
<path fill="none" stroke="black" stroke-width="2" d="M230,-132C230,-132 160,-132 160,-132 154,-132 148,-126 148,-120 148,-120 148,-108 148,-108 148,-102 154,-96 160,-96 160,-96 230,-96 230,-96 236,-96 242,-102 242,-108 242,-108 242,-120 242,-120 242,-126 236,-132 230,-132"/>
<text text-anchor="middle" x="195" y="-111.2" font-family="lmtt" font-size="11.00">LOCKED_IN</text>
</g>
<!-- STARTED&#45;&gt;LOCKED_IN -->
<g id="edge5" class="edge">
<title>STARTED&#45;&gt;LOCKED_IN</title>
<path fill="none" stroke="black" d="M94.27,-195.25C108.94,-189.84 124.73,-182.78 138,-174 151.99,-164.74 165.18,-151.5 175.33,-139.92"/>
<polygon fill="black" stroke="black" points="178.06,-142.12 181.86,-132.23 172.72,-137.59 178.06,-142.12"/>
<text text-anchor="middle" x="211.5" y="-159.2" font-family="lmtt" font-size="11.00">count &gt;= threshold</text>
</g>
<!-- FAILED&#45;&gt;FAILED -->
<g id="edge10" class="edge">
<title>FAILED&#45;&gt;FAILED</title>
<path fill="none" stroke="black" d="M94.04,-122.76C104.43,-121.93 112,-119.02 112,-114 112,-110.79 108.89,-108.43 103.93,-106.94"/>
<polygon fill="black" stroke="black" points="104.48,-103.49 94.04,-105.24 103.3,-110.38 104.48,-103.49"/>
</g>
<!-- FAILED&#45;&gt;LOCKED_IN -->
<!-- LOCKED_IN&#45;&gt;LOCKED_IN -->
<g id="edge3" class="edge">
<title>LOCKED_IN&#45;&gt;LOCKED_IN</title>
<path fill="none" stroke="black" d="M242.04,-122.76C252.43,-121.93 260,-119.02 260,-114 260,-110.79 256.89,-108.43 251.93,-106.94"/>
<polygon fill="black" stroke="black" points="252.48,-103.49 242.04,-105.24 251.3,-110.38 252.48,-103.49"/>
<text text-anchor="middle" x="313.5" y="-117.2" font-family="lmtt" font-size="11.00"> height + 1 &lt;</text>
<text text-anchor="middle" x="313.5" y="-105.2" font-family="lmtt" font-size="11.00"> min_activation_height</text>
</g>
<!-- ACTIVE -->
<g id="node5" class="node">
<title>ACTIVE</title>
<path fill="none" stroke="black" stroke-width="2" d="M230,-36C230,-36 160,-36 160,-36 154,-36 148,-30 148,-24 148,-24 148,-12 148,-12 148,-6 154,0 160,0 160,0 230,0 230,0 236,0 242,-6 242,-12 242,-12 242,-24 242,-24 242,-30 236,-36 230,-36"/>
<text text-anchor="middle" x="195" y="-15.2" font-family="lmtt" font-size="11.00">ACTIVE</text>
</g>
<!-- LOCKED_IN&#45;&gt;ACTIVE -->
<g id="edge4" class="edge">
<title>LOCKED_IN&#45;&gt;ACTIVE</title>
<path fill="none" stroke="black" d="M195,-95.76C195,-81.98 195,-62.4 195,-46.47"/>
<polygon fill="black" stroke="black" points="198.5,-46.13 195,-36.13 191.5,-46.13 198.5,-46.13"/>
<text text-anchor="middle" x="248.5" y="-69.2" font-family="lmtt" font-size="11.00"> height + 1 &gt;=</text>
<text text-anchor="middle" x="248.5" y="-57.2" font-family="lmtt" font-size="11.00"> min_activation_height</text>
</g>
<!-- ACTIVE&#45;&gt;ACTIVE -->
<g id="edge9" class="edge">
<title>ACTIVE&#45;&gt;ACTIVE</title>
<path fill="none" stroke="black" d="M242.04,-26.76C252.43,-25.93 260,-23.02 260,-18 260,-14.79 256.89,-12.43 251.93,-10.94"/>
<polygon fill="black" stroke="black" points="252.48,-7.49 242.04,-9.24 251.3,-14.38 252.48,-7.49"/>
</g>
</g>
</svg>
