<?xml version="1.0" encoding="UTF-8" standalone="no"?>
<!DOCTYPE svg PUBLIC "-//W3C//DTD SVG 1.1//EN"
 "http://www.w3.org/Graphics/SVG/1.1/DTD/svg11.dtd">
<!-- Generated by graphviz version 12.1.2 (20240928.0832)
 -->
<!-- Pages: 1 -->
<svg width="367pt" height="328pt"
 viewBox="0.00 0.00 367.10 327.50" xmlns="http://www.w3.org/2000/svg" xmlns:xlink="http://www.w3.org/1999/xlink">
<g id="graph0" class="graph" transform="scale(1 1) rotate(0) translate(4 323.5)">
<polygon fill="white" stroke="none" points="-4,4 -4,-323.5 363.1,-323.5 363.1,4 -4,4"/>
<!-- DEFINED -->
<g id="node1" class="node">
<title>DEFINED</title>
<path fill="none" stroke="black" stroke-width="2" d="M81.6,-319.5C81.6,-319.5 12,-319.5 12,-319.5 6,-319.5 0,-313.5 0,-307.5 0,-307.5 0,-295.5 0,-295.5 0,-289.5 6,-283.5 12,-283.5 12,-283.5 81.6,-283.5 81.6,-283.5 87.6,-283.5 93.6,-289.5 93.6,-295.5 93.6,-295.5 93.6,-307.5 93.6,-307.5 93.6,-313.5 87.6,-319.5 81.6,-319.5"/>
<text text-anchor="middle" x="46.8" y="-297.8" font-family="Times,serif" font-size="11.00">DEFINED</text>
</g>
<!-- DEFINED&#45;&gt;DEFINED -->
<g id="edge7" class="edge">
<title>DEFINED&#45;&gt;DEFINED</title>
<path fill="none" stroke="black" d="M93.98,-309.28C104.19,-308.52 111.6,-305.93 111.6,-301.5 111.6,-298.94 109.12,-297 105.06,-295.66"/>
<polygon fill="black" stroke="black" points="105.93,-292.26 95.47,-293.98 104.72,-299.16 105.93,-292.26"/>
<text text-anchor="middle" x="149.48" y="-297.8" font-family="Times,serif" font-size="11.00"> MTP &lt; starttime</text>
</g>
<!-- STARTED -->
<g id="node2" class="node">
<title>STARTED</title>
<path fill="none" stroke="black" stroke-width="2" d="M81.6,-234C81.6,-234 12,-234 12,-234 6,-234 0,-228 0,-222 0,-222 0,-210 0,-210 0,-204 6,-198 12,-198 12,-198 81.6,-198 81.6,-198 87.6,-198 93.6,-204 93.6,-210 93.6,-210 93.6,-222 93.6,-222 93.6,-228 87.6,-234 81.6,-234"/>
<text text-anchor="middle" x="46.8" y="-212.3" font-family="Times,serif" font-size="11.00">STARTED</text>
</g>
<!-- DEFINED&#45;&gt;STARTED -->
<g id="edge1" class="edge">
<title>DEFINED&#45;&gt;STARTED</title>
<path fill="none" stroke="black" d="M46.8,-283.2C46.8,-272.34 46.8,-258.07 46.8,-245.56"/>
<polygon fill="black" stroke="black" points="50.3,-245.79 46.8,-235.79 43.3,-245.79 50.3,-245.79"/>
<text text-anchor="middle" x="87.68" y="-255.05" font-family="Times,serif" font-size="11.00"> MTP &gt;= starttime</text>
</g>
<!-- STARTED&#45;&gt;STARTED -->
<g id="edge8" class="edge">
<title>STARTED&#45;&gt;STARTED</title>
<path fill="none" stroke="black" d="M93.98,-223.78C104.19,-223.02 111.6,-220.43 111.6,-216 111.6,-213.44 109.12,-211.5 105.06,-210.16"/>
<polygon fill="black" stroke="black" points="105.93,-206.76 95.47,-208.48 104.72,-213.66 105.93,-206.76"/>
<text text-anchor="middle" x="151.35" y="-219.05" font-family="Times,serif" font-size="11.00"> count &lt; threshold</text>
<text text-anchor="middle" x="151.35" y="-205.55" font-family="Times,serif" font-size="11.00">MTP &lt; timeout</text>
</g>
<!-- FAILED -->
<g id="node3" class="node">
<title>FAILED</title>
<path fill="none" stroke="black" stroke-width="2" d="M81.6,-135C81.6,-135 12,-135 12,-135 6,-135 0,-129 0,-123 0,-123 0,-111 0,-111 0,-105 6,-99 12,-99 12,-99 81.6,-99 81.6,-99 87.6,-99 93.6,-105 93.6,-111 93.6,-111 93.6,-123 93.6,-123 93.6,-129 87.6,-135 81.6,-135"/>
<text text-anchor="middle" x="46.8" y="-113.3" font-family="Times,serif" font-size="11.00">FAILED</text>
</g>
<!-- STARTED&#45;&gt;FAILED -->
<g id="edge2" class="edge">
<title>STARTED&#45;&gt;FAILED</title>
<path fill="none" stroke="black" d="M46.8,-197.66C46.8,-183.45 46.8,-163.06 46.8,-146.46"/>
<polygon fill="black" stroke="black" points="50.3,-146.71 46.8,-136.71 43.3,-146.71 50.3,-146.71"/>
<text text-anchor="middle" x="86.55" y="-169.55" font-family="Times,serif" font-size="11.00"> count &lt; threshold</text>
<text text-anchor="middle" x="86.55" y="-156.05" font-family="Times,serif" font-size="11.00">MTP &gt;= timeout</text>
</g>
<!-- LOCKED_IN -->
<g id="node4" class="node">
<title>LOCKED_IN</title>
<path fill="none" stroke="black" stroke-width="2" d="M228.6,-135C228.6,-135 159,-135 159,-135 153,-135 147,-129 147,-123 147,-123 147,-111 147,-111 147,-105 153,-99 159,-99 159,-99 228.6,-99 228.6,-99 234.6,-99 240.6,-105 240.6,-111 240.6,-111 240.6,-123 240.6,-123 240.6,-129 234.6,-135 228.6,-135"/>
<text text-anchor="middle" x="193.8" y="-113.3" font-family="Times,serif" font-size="11.00">LOCKED_IN</text>
</g>
<!-- STARTED&#45;&gt;LOCKED_IN -->
<g id="edge5" class="edge">
<title>STARTED&#45;&gt;LOCKED_IN</title>
<path fill="none" stroke="black" d="M93.76,-199.14C106.29,-193.93 119.48,-187.52 130.8,-180 145.92,-169.96 160.52,-155.96 171.85,-143.8"/>
<polygon fill="black" stroke="black" points="174.36,-146.25 178.47,-136.49 169.17,-141.56 174.36,-146.25"/>
<text text-anchor="middle" x="203.49" y="-162.8" font-family="Times,serif" font-size="11.00">count &gt;= threshold</text>
</g>
<!-- FAILED&#45;&gt;FAILED -->
<g id="edge10" class="edge">
<title>FAILED&#45;&gt;FAILED</title>
<path fill="none" stroke="black" d="M93.98,-126.01C104.19,-125.13 111.6,-122.12 111.6,-117 111.6,-114.04 109.12,-111.78 105.06,-110.24"/>
<polygon fill="black" stroke="black" points="105.96,-106.85 95.46,-108.29 104.57,-113.71 105.96,-106.85"/>
</g>
<!-- FAILED&#45;&gt;LOCKED_IN -->
<!-- LOCKED_IN&#45;&gt;LOCKED_IN -->
<g id="edge3" class="edge">
<title>LOCKED_IN&#45;&gt;LOCKED_IN</title>
<path fill="none" stroke="black" d="M240.98,-126.01C251.19,-125.13 258.6,-122.12 258.6,-117 258.6,-114.04 256.12,-111.78 252.06,-110.24"/>
<polygon fill="black" stroke="black" points="252.96,-106.85 242.46,-108.29 251.57,-113.71 252.96,-106.85"/>
<text text-anchor="middle" x="308.85" y="-120.05" font-family="Times,serif" font-size="11.00"> height + 1 &lt;</text>
<text text-anchor="middle" x="308.85" y="-106.55" font-family="Times,serif" font-size="11.00"> min_activation_height</text>
</g>
<!-- ACTIVE -->
<g id="node5" class="node">
<title>ACTIVE</title>
<path fill="none" stroke="black" stroke-width="2" d="M228.6,-36C228.6,-36 159,-36 159,-36 153,-36 147,-30 147,-24 147,-24 147,-12 147,-12 147,-6 153,0 159,0 159,0 228.6,0 228.6,0 234.6,0 240.6,-6 240.6,-12 240.6,-12 240.6,-24 240.6,-24 240.6,-30 234.6,-36 228.6,-36"/>
<text text-anchor="middle" x="193.8" y="-14.3" font-family="Times,serif" font-size="11.00">ACTIVE</text>
</g>
<!-- LOCKED_IN&#45;&gt;ACTIVE -->
<g id="edge4" class="edge">
<title>LOCKED_IN&#45;&gt;ACTIVE</title>
<path fill="none" stroke="black" d="M193.8,-98.66C193.8,-84.45 193.8,-64.06 193.8,-47.46"/>
<polygon fill="black" stroke="black" points="197.3,-47.71 193.8,-37.71 190.3,-47.71 197.3,-47.71"/>
<text text-anchor="middle" x="244.05" y="-70.55" font-family="Times,serif" font-size="11.00"> height + 1 &gt;=</text>
<text text-anchor="middle" x="244.05" y="-57.05" font-family="Times,serif" font-size="11.00"> min_activation_height</text>
</g>
<!-- ACTIVE&#45;&gt;ACTIVE -->
<g id="edge9" class="edge">
<title>ACTIVE&#45;&gt;ACTIVE</title>
<path fill="none" stroke="black" d="M240.98,-27.01C251.19,-26.13 258.6,-23.12 258.6,-18 258.6,-15.04 256.12,-12.78 252.06,-11.24"/>
<polygon fill="black" stroke="black" points="252.96,-7.85 242.46,-9.29 251.57,-14.71 252.96,-7.85"/>
</g>
</g>
</svg>
