<?xml version="1.0" encoding="UTF-8" standalone="no"?>
<!DOCTYPE svg PUBLIC "-//W3C//DTD SVG 1.1//EN"
 "http://www.w3.org/Graphics/SVG/1.1/DTD/svg11.dtd">
<!-- Generated by graphviz version 3.0.0 (20220226.1711)
 -->
<!-- Pages: 1 -->
<svg width="542pt" height="213pt"
 viewBox="0.00 0.00 542.00 213.00" xmlns="http://www.w3.org/2000/svg" xmlns:xlink="http://www.w3.org/1999/xlink">
<g id="graph0" class="graph" transform="scale(1 1) rotate(0) translate(4 209)">
<polygon fill="white" stroke="transparent" points="-4,4 -4,-209 538,-209 538,4 -4,4"/>
<g id="clust1" class="cluster">
<title>cluster_split</title>
<polygon fill="none" stroke="black" stroke-dasharray="5,2" points="100,-8 100,-197 526,-197 526,-8 100,-8"/>
<text text-anchor="middle" x="313" y="-181.8" font-family="Times,serif" font-size="14.00">Chainsplit</text>
</g>
<!-- tx -->
<g id="node1" class="node">
<title>tx</title>
<text text-anchor="start" x="119.5" y="-96.2" font-family="lmodern" font-size="11.00"> Transaction </text>
<text text-anchor="start" x="127.5" y="-80.2" font-family="lmodern" font-size="11.00">3 sat/byte</text>
<polygon fill="black" stroke="black" points="116.5,-91 116.5,-91 185.5,-91 185.5,-91 116.5,-91"/>
<path fill="none" stroke="black" d="M127.33,-74C127.33,-74 173.67,-74 173.67,-74 179.33,-74 185,-79.67 185,-85.33 185,-85.33 185,-96.67 185,-96.67 185,-102.33 179.33,-108 173.67,-108 173.67,-108 127.33,-108 127.33,-108 121.67,-108 116,-102.33 116,-96.67 116,-96.67 116,-85.33 116,-85.33 116,-79.67 121.67,-74 127.33,-74"/>
</g>
<!-- a2 -->
<g id="node4" class="node">
<title>a2</title>
<polygon fill="none" stroke="black" stroke-width="2" points="186.5,-166 114.5,-166 114.5,-130 186.5,-130 186.5,-166"/>
<text text-anchor="start" x="117.5" y="-153.2" font-family="lmodern" font-size="11.00"> &#160;&#160;&#160;&#160;Block 2 &#160;&#160;&#160;&#160;</text>
<text text-anchor="start" x="123.5" y="-136.2" font-family="lmodern" font-size="11.00">&gt;1 sat/byte</text>
<polygon fill="black" stroke="black" points="115.5,-148 115.5,-148 186.5,-148 186.5,-148 115.5,-148"/>
</g>
<!-- tx&#45;&gt;a2 -->
<g id="edge6" class="edge">
<title>tx&#45;&gt;a2</title>
<path fill="none" stroke="black" stroke-dasharray="5,2" d="M151,-112.22C151,-118.05 151,-124.31 151,-129.94"/>
</g>
<!-- tx2 -->
<g id="node2" class="node">
<title>tx2</title>
<path fill="none" stroke="black" d="M506,-112C506,-112 457,-112 457,-112 451,-112 445,-106 445,-100 445,-100 445,-88 445,-88 445,-82 451,-76 457,-76 457,-76 506,-76 506,-76 512,-76 518,-82 518,-88 518,-88 518,-100 518,-100 518,-106 512,-112 506,-112"/>
<text text-anchor="middle" x="481.5" y="-91.2" font-family="lmodern" font-size="11.00">Transaction</text>
</g>
<!-- a11 -->
<g id="node6" class="node">
<title>a11</title>
<polygon fill="none" stroke="black" stroke-width="2" points="409,-166 337,-166 337,-130 409,-130 409,-166"/>
<text text-anchor="start" x="340" y="-153.2" font-family="lmodern" font-size="11.00"> &#160;&#160;&#160;Block 11 &#160;&#160;&#160;</text>
<text text-anchor="start" x="351.5" y="-136.2" font-family="lmodern" font-size="11.00">coinbase</text>
<polygon fill="black" stroke="black" points="338,-148 338,-148 409,-148 409,-148 338,-148"/>
</g>
<!-- tx2&#45;&gt;a11 -->
<g id="edge8" class="edge">
<title>tx2&#45;&gt;a11</title>
<path fill="none" stroke="black" d="M444.77,-94C413.29,-94 373,-94 373,-94 373,-94 373,-119.72 373,-119.72"/>
<polygon fill="black" stroke="black" points="369.5,-119.72 373,-129.72 376.5,-119.72 369.5,-119.72"/>
</g>
<!-- a20 -->
<g id="node7" class="node">
<title>a20</title>
<polygon fill="none" stroke="black" stroke-width="2" points="517.5,-166 445.5,-166 445.5,-130 517.5,-130 517.5,-166"/>
<text text-anchor="start" x="448.5" y="-153.2" font-family="lmodern" font-size="11.00"> &#160;&#160;&#160;Block 20 &#160;&#160;&#160;</text>
<text text-anchor="start" x="479.5" y="-136.2" font-family="lmodern" font-size="11.00"> </text>
<polygon fill="black" stroke="black" points="446.5,-148 446.5,-148 517.5,-148 517.5,-148 446.5,-148"/>
</g>
<!-- tx2&#45;&gt;a20 -->
<g id="edge7" class="edge">
<title>tx2&#45;&gt;a20</title>
<path fill="none" stroke="black" stroke-dasharray="5,2" d="M482,-112.28C482,-117.91 482,-124.11 482,-129.74"/>
</g>
<!-- 1 -->
<g id="node3" class="node">
<title>1</title>
<polygon fill="none" stroke="black" stroke-width="2" points="72,-166 0,-166 0,-130 72,-130 72,-166"/>
<text text-anchor="start" x="3" y="-153.2" font-family="lmodern" font-size="11.00"> &#160;&#160;&#160;&#160;Block 1 &#160;&#160;&#160;&#160;</text>
<text text-anchor="start" x="34" y="-136.2" font-family="lmodern" font-size="11.00"> </text>
<polygon fill="black" stroke="black" points="1,-148 1,-148 72,-148 72,-148 1,-148"/>
</g>
<!-- 1&#45;&gt;a2 -->
<g id="edge9" class="edge">
<title>1&#45;&gt;a2</title>
<path fill="none" stroke="black" d="M72.23,-148C72.23,-148 104.11,-148 104.11,-148"/>
<polygon fill="black" stroke="black" points="104.11,-151.5 114.11,-148 104.11,-144.5 104.11,-151.5"/>
</g>
<!-- b_dummy -->
<!-- 1&#45;&gt;b_dummy -->
<g id="edge10" class="edge">
<title>1&#45;&gt;b_dummy</title>
<path fill="none" stroke="black" d="M36,-129.94C36,-97.79 36,-34 36,-34 36,-34 150.5,-34 150.5,-34"/>
</g>
<!-- a10 -->
<g id="node5" class="node">
<title>a10</title>
<polygon fill="none" stroke="black" stroke-width="2" points="301,-166 229,-166 229,-130 301,-130 301,-166"/>
<text text-anchor="start" x="232" y="-153.2" font-family="lmodern" font-size="11.00"> &#160;&#160;&#160;Block 10 &#160;&#160;&#160;</text>
<text text-anchor="start" x="263" y="-136.2" font-family="lmodern" font-size="11.00"> </text>
<polygon fill="black" stroke="black" points="230,-148 230,-148 301,-148 301,-148 230,-148"/>
</g>
<!-- a2&#45;&gt;a10 -->
<g id="edge1" class="edge">
<title>a2&#45;&gt;a10</title>
<path fill="none" stroke="black" stroke-dasharray="5,2" d="M186.73,-148C186.73,-148 218.61,-148 218.61,-148"/>
<polygon fill="black" stroke="black" points="218.61,-151.5 228.61,-148 218.61,-144.5 218.61,-151.5"/>
</g>
<!-- a10&#45;&gt;a11 -->
<g id="edge2" class="edge">
<title>a10&#45;&gt;a11</title>
<path fill="none" stroke="black" d="M301.26,-148C301.26,-148 326.65,-148 326.65,-148"/>
<polygon fill="black" stroke="black" points="326.65,-151.5 336.65,-148 326.65,-144.5 326.65,-151.5"/>
</g>
<!-- a11&#45;&gt;a20 -->
<g id="edge3" class="edge">
<title>a11&#45;&gt;a20</title>
<path fill="none" stroke="black" stroke-dasharray="5,2" d="M409.13,-148C409.13,-148 435.16,-148 435.16,-148"/>
<polygon fill="black" stroke="black" points="435.16,-151.5 445.16,-148 435.16,-144.5 435.16,-151.5"/>
</g>
<!-- b2 -->
<g id="node9" class="node">
<title>b2</title>
<polygon fill="none" stroke="black" stroke-width="2" points="301,-52 229,-52 229,-16 301,-16 301,-52"/>
<text text-anchor="start" x="232" y="-39.2" font-family="lmodern" font-size="11.00"> &#160;&#160;&#160;&#160;Block 2 &#160;&#160;&#160;&#160;</text>
<text text-anchor="start" x="235" y="-22.2" font-family="lmodern" font-size="11.00">&gt;50 sat/byte</text>
<polygon fill="black" stroke="black" points="230,-34 230,-34 301,-34 301,-34 230,-34"/>
</g>
<!-- b_dummy&#45;&gt;b2 -->
<g id="edge4" class="edge">
<title>b_dummy&#45;&gt;b2</title>
<path fill="none" stroke="black" d="M150.5,-34C150.5,-34 218.77,-34 218.77,-34"/>
<polygon fill="black" stroke="black" points="218.77,-37.5 228.77,-34 218.77,-30.5 218.77,-37.5"/>
</g>
<!-- b3 -->
<g id="node10" class="node">
<title>b3</title>
<polygon fill="none" stroke="black" stroke-width="2" points="517.5,-52 445.5,-52 445.5,-16 517.5,-16 517.5,-52"/>
<text text-anchor="start" x="448.5" y="-39.2" font-family="lmodern" font-size="11.00"> &#160;&#160;&#160;&#160;Block 3 &#160;&#160;&#160;&#160;</text>
<text text-anchor="start" x="451.5" y="-22.2" font-family="lmodern" font-size="11.00">&gt;50 sat/byte</text>
<polygon fill="black" stroke="black" points="446.5,-34 446.5,-34 517.5,-34 517.5,-34 446.5,-34"/>
</g>
<!-- b2&#45;&gt;b3 -->
<g id="edge5" class="edge">
<title>b2&#45;&gt;b3</title>
<path fill="none" stroke="black" d="M301.24,-34C301.24,-34 435.14,-34 435.14,-34"/>
<polygon fill="black" stroke="black" points="435.14,-37.5 445.14,-34 435.14,-30.5 435.14,-37.5"/>
</g>
</g>
</svg>
