<?xml version="1.0" encoding="UTF-8" standalone="no"?>
<!DOCTYPE svg PUBLIC "-//W3C//DTD SVG 1.1//EN"
 "http://www.w3.org/Graphics/SVG/1.1/DTD/svg11.dtd">
<!-- Generated by graphviz version 12.1.2 (20240928.0832)
 -->
<!-- Pages: 1 -->
<svg width="537pt" height="219pt"
 viewBox="0.00 0.00 536.50 219.00" xmlns="http://www.w3.org/2000/svg" xmlns:xlink="http://www.w3.org/1999/xlink">
<g id="graph0" class="graph" transform="scale(1 1) rotate(0) translate(4 215)">
<polygon fill="white" stroke="none" points="-4,4 -4,-215 532.5,-215 532.5,4 -4,4"/>
<g id="clust1" class="cluster">
<title>cluster_split</title>
<polygon fill="none" stroke="black" stroke-dasharray="5,2" points="100,-8 100,-203 520.5,-203 520.5,-8 100,-8"/>
<text text-anchor="middle" x="310.25" y="-185.7" font-family="Times,serif" font-size="14.00">Chainsplit</text>
</g>
<!-- tx -->
<g id="node1" class="node">
<title>tx</title>
<text text-anchor="start" x="119" y="-44.05" font-family="Times,serif" font-size="11.00"> Transaction </text>
<text text-anchor="start" x="126.88" y="-26.55" font-family="Times,serif" font-size="11.00">3 sat/byte</text>
<polygon fill="black" stroke="black" points="116,-39 116,-39 180.5,-39 180.5,-39 116,-39"/>
<path fill="none" stroke="black" d="M128,-20.5C128,-20.5 168.5,-20.5 168.5,-20.5 174.5,-20.5 180.5,-26.5 180.5,-32.5 180.5,-32.5 180.5,-45.5 180.5,-45.5 180.5,-51.5 174.5,-57.5 168.5,-57.5 168.5,-57.5 128,-57.5 128,-57.5 122,-57.5 116,-51.5 116,-45.5 116,-45.5 116,-32.5 116,-32.5 116,-26.5 122,-20.5 128,-20.5"/>
</g>
<!-- a2 -->
<g id="node4" class="node">
<title>a2</title>
<polygon fill="none" stroke="black" stroke-width="2" points="184.25,-116 112.25,-116 112.25,-80 184.25,-80 184.25,-116"/>
<text text-anchor="start" x="131" y="-103.55" font-family="Times,serif" font-size="11.00">Block 2</text>
<text text-anchor="start" x="123.88" y="-85.05" font-family="Times,serif" font-size="11.00">&gt;1 sat/byte</text>
<polygon fill="black" stroke="black" points="113.25,-98.5 113.25,-98.5 184.25,-98.5 184.25,-98.5 113.25,-98.5"/>
</g>
<!-- tx&#45;&gt;a2 -->
<g id="edge6" class="edge">
<title>tx&#45;&gt;a2</title>
<path fill="none" stroke="black" stroke-dasharray="5,2" d="M148.25,-61.31C148.25,-67.31 148.25,-73.74 148.25,-79.51"/>
</g>
<!-- tx2 -->
<g id="node2" class="node">
<title>tx2</title>
<path fill="none" stroke="black" d="M498.75,-62C498.75,-62 454.25,-62 454.25,-62 448.25,-62 442.25,-56 442.25,-50 442.25,-50 442.25,-38 442.25,-38 442.25,-32 448.25,-26 454.25,-26 454.25,-26 498.75,-26 498.75,-26 504.75,-26 510.75,-32 510.75,-38 510.75,-38 510.75,-50 510.75,-50 510.75,-56 504.75,-62 498.75,-62"/>
<text text-anchor="middle" x="476.5" y="-40.3" font-family="Times,serif" font-size="11.00">Transaction</text>
</g>
<!-- a11 -->
<g id="node6" class="node">
<title>a11</title>
<polygon fill="none" stroke="black" stroke-width="2" points="404.5,-116 332.5,-116 332.5,-80 404.5,-80 404.5,-116"/>
<text text-anchor="start" x="348.62" y="-103.55" font-family="Times,serif" font-size="11.00">Block 11</text>
<text text-anchor="start" x="349" y="-85.05" font-family="Times,serif" font-size="11.00">coinbase</text>
<polygon fill="black" stroke="black" points="333.5,-98.5 333.5,-98.5 404.5,-98.5 404.5,-98.5 333.5,-98.5"/>
</g>
<!-- tx2&#45;&gt;a11 -->
<g id="edge8" class="edge">
<title>tx2&#45;&gt;a11</title>
<path fill="none" stroke="black" d="M442.03,-43.75C410.42,-43.75 368.5,-43.75 368.5,-43.75 368.5,-43.75 368.5,-68.12 368.5,-68.12"/>
<polygon fill="black" stroke="black" points="365,-68.12 368.5,-78.12 372,-68.12 365,-68.12"/>
</g>
<!-- a20 -->
<g id="node7" class="node">
<title>a20</title>
<polygon fill="none" stroke="black" stroke-width="2" points="512.5,-116 440.5,-116 440.5,-80 512.5,-80 512.5,-116"/>
<text text-anchor="start" x="456.62" y="-103.55" font-family="Times,serif" font-size="11.00">Block 20</text>
<text text-anchor="start" x="475" y="-85.05" font-family="Times,serif" font-size="11.00"> </text>
<polygon fill="black" stroke="black" points="441.5,-98.5 441.5,-98.5 512.5,-98.5 512.5,-98.5 441.5,-98.5"/>
</g>
<!-- tx2&#45;&gt;a20 -->
<g id="edge7" class="edge">
<title>tx2&#45;&gt;a20</title>
<path fill="none" stroke="black" stroke-dasharray="5,2" d="M476.5,-62.28C476.5,-67.91 476.5,-74.11 476.5,-79.74"/>
</g>
<!-- 1 -->
<g id="node3" class="node">
<title>1</title>
<polygon fill="none" stroke="black" stroke-width="2" points="72,-116 0,-116 0,-80 72,-80 72,-116"/>
<text text-anchor="start" x="18.75" y="-103.55" font-family="Times,serif" font-size="11.00">Block 1</text>
<text text-anchor="start" x="34.5" y="-85.05" font-family="Times,serif" font-size="11.00"> </text>
<polygon fill="black" stroke="black" points="1,-98.5 1,-98.5 72,-98.5 72,-98.5 1,-98.5"/>
</g>
<!-- 1&#45;&gt;a2 -->
<g id="edge9" class="edge">
<title>1&#45;&gt;a2</title>
<path fill="none" stroke="black" d="M72.44,-98C72.44,-98 100.47,-98 100.47,-98"/>
<polygon fill="black" stroke="black" points="100.47,-101.5 110.47,-98 100.47,-94.5 100.47,-101.5"/>
</g>
<!-- b_dummy -->
<!-- 1&#45;&gt;b_dummy -->
<g id="edge10" class="edge">
<title>1&#45;&gt;b_dummy</title>
<path fill="none" stroke="black" d="M36,-116.28C36,-131.95 36,-152 36,-152 36,-152 148.25,-152 148.25,-152"/>
</g>
<!-- a10 -->
<g id="node5" class="node">
<title>a10</title>
<polygon fill="none" stroke="black" stroke-width="2" points="296.5,-116 224.5,-116 224.5,-80 296.5,-80 296.5,-116"/>
<text text-anchor="start" x="240.62" y="-103.55" font-family="Times,serif" font-size="11.00">Block 10</text>
<text text-anchor="start" x="259" y="-85.05" font-family="Times,serif" font-size="11.00"> </text>
<polygon fill="black" stroke="black" points="225.5,-98.5 225.5,-98.5 296.5,-98.5 296.5,-98.5 225.5,-98.5"/>
</g>
<!-- a2&#45;&gt;a10 -->
<g id="edge1" class="edge">
<title>a2&#45;&gt;a10</title>
<path fill="none" stroke="black" stroke-dasharray="5,2" d="M184.69,-98C184.69,-98 212.72,-98 212.72,-98"/>
<polygon fill="black" stroke="black" points="212.72,-101.5 222.72,-98 212.72,-94.5 212.72,-101.5"/>
</g>
<!-- a10&#45;&gt;a11 -->
<g id="edge2" class="edge">
<title>a10&#45;&gt;a11</title>
<path fill="none" stroke="black" d="M296.76,-98C296.76,-98 320.64,-98 320.64,-98"/>
<polygon fill="black" stroke="black" points="320.64,-101.5 330.64,-98 320.64,-94.5 320.64,-101.5"/>
</g>
<!-- a11&#45;&gt;a20 -->
<g id="edge3" class="edge">
<title>a11&#45;&gt;a20</title>
<path fill="none" stroke="black" stroke-dasharray="5,2" d="M404.76,-98C404.76,-98 428.64,-98 428.64,-98"/>
<polygon fill="black" stroke="black" points="428.64,-101.5 438.64,-98 428.64,-94.5 428.64,-101.5"/>
</g>
<!-- b2 -->
<g id="node9" class="node">
<title>b2</title>
<polygon fill="none" stroke="black" stroke-width="2" points="296.5,-170 224.5,-170 224.5,-134 296.5,-134 296.5,-170"/>
<text text-anchor="start" x="243.25" y="-157.55" font-family="Times,serif" font-size="11.00">Block 2</text>
<text text-anchor="start" x="233.5" y="-139.05" font-family="Times,serif" font-size="11.00">&gt;50 sat/byte</text>
<polygon fill="black" stroke="black" points="225.5,-152.5 225.5,-152.5 296.5,-152.5 296.5,-152.5 225.5,-152.5"/>
</g>
<!-- b_dummy&#45;&gt;b2 -->
<g id="edge4" class="edge">
<title>b_dummy&#45;&gt;b2</title>
<path fill="none" stroke="black" d="M148.25,-152C148.25,-152 212.54,-152 212.54,-152"/>
<polygon fill="black" stroke="black" points="212.54,-155.5 222.54,-152 212.54,-148.5 212.54,-155.5"/>
</g>
<!-- b3 -->
<g id="node10" class="node">
<title>b3</title>
<polygon fill="none" stroke="black" stroke-width="2" points="512.5,-170 440.5,-170 440.5,-134 512.5,-134 512.5,-170"/>
<text text-anchor="start" x="459.25" y="-157.55" font-family="Times,serif" font-size="11.00">Block 3</text>
<text text-anchor="start" x="449.5" y="-139.05" font-family="Times,serif" font-size="11.00">&gt;50 sat/byte</text>
<polygon fill="black" stroke="black" points="441.5,-152.5 441.5,-152.5 512.5,-152.5 512.5,-152.5 441.5,-152.5"/>
</g>
<!-- b2&#45;&gt;b3 -->
<g id="edge5" class="edge">
<title>b2&#45;&gt;b3</title>
<path fill="none" stroke="black" d="M296.65,-152C296.65,-152 428.71,-152 428.71,-152"/>
<polygon fill="black" stroke="black" points="428.71,-155.5 438.71,-152 428.71,-148.5 428.71,-155.5"/>
</g>
</g>
</svg>
