<?xml version="1.0" encoding="UTF-8" standalone="no"?>
<!DOCTYPE svg PUBLIC "-//W3C//DTD SVG 1.1//EN"
 "http://www.w3.org/Graphics/SVG/1.1/DTD/svg11.dtd">
<!-- Generated by graphviz version 14.1.2 (20260124.0452)
 -->
<!-- Pages: 1 -->
<svg width="608pt" height="229pt"
 viewBox="0.00 0.00 608.00 229.00" xmlns="http://www.w3.org/2000/svg" xmlns:xlink="http://www.w3.org/1999/xlink">
<g id="graph0" class="graph" transform="scale(1 1) rotate(0) translate(4 225)">
<polygon fill="white" stroke="none" points="-4,4 -4,-225 604,-225 604,4 -4,4"/>
<g id="clust1" class="cluster">
<title>cluster_split</title>
<polygon fill="none" stroke="black" stroke-dasharray="5,2" points="116,-8 116,-213 592,-213 592,-8 116,-8"/>
<text xml:space="preserve" text-anchor="middle" x="354" y="-195.7" font-family="Times,serif" font-size="14.00">Chainsplit</text>
</g>
<!-- tx -->
<g id="node1" class="node">
<title>tx</title>
<text xml:space="preserve" text-anchor="start" x="138.75" y="-44.05" font-family="Times,serif" font-size="11.00"> Transaction </text>
<text xml:space="preserve" text-anchor="start" x="146.62" y="-26.55" font-family="Times,serif" font-size="11.00">3 sat/byte</text>
<polygon fill="black" stroke="black" points="135.75,-39 135.75,-39 200.25,-39 200.25,-39 135.75,-39"/>
<path fill="none" stroke="black" d="M147.75,-20.5C147.75,-20.5 188.25,-20.5 188.25,-20.5 194.25,-20.5 200.25,-26.5 200.25,-32.5 200.25,-32.5 200.25,-45.5 200.25,-45.5 200.25,-51.5 194.25,-57.5 188.25,-57.5 188.25,-57.5 147.75,-57.5 147.75,-57.5 141.75,-57.5 135.75,-51.5 135.75,-45.5 135.75,-45.5 135.75,-32.5 135.75,-32.5 135.75,-26.5 141.75,-20.5 147.75,-20.5"/>
</g>
<!-- a2 -->
<g id="node4" class="node">
<title>a2</title>
<polygon fill="none" stroke="black" stroke-width="2" points="212,-126 124,-126 124,-80 212,-80 212,-126"/>
<text xml:space="preserve" text-anchor="start" x="150.75" y="-108.55" font-family="Times,serif" font-size="11.00">Block 2</text>
<text xml:space="preserve" text-anchor="start" x="143.62" y="-90.05" font-family="Times,serif" font-size="11.00">&gt;1 sat/byte</text>
<polygon fill="black" stroke="black" points="133,-103.5 133,-103.5 204,-103.5 204,-103.5 133,-103.5"/>
</g>
<!-- tx&#45;&gt;a2 -->
<g id="edge6" class="edge">
<title>tx&#45;&gt;a2</title>
<path fill="none" stroke="black" stroke-dasharray="5,2" d="M168,-61.38C168,-67.3 168,-73.69 168,-79.65"/>
</g>
<!-- tx2 -->
<g id="node2" class="node">
<title>tx2</title>
<path fill="none" stroke="black" d="M562.25,-52C562.25,-52 517.75,-52 517.75,-52 511.75,-52 505.75,-46 505.75,-40 505.75,-40 505.75,-28 505.75,-28 505.75,-22 511.75,-16 517.75,-16 517.75,-16 562.25,-16 562.25,-16 568.25,-16 574.25,-22 574.25,-28 574.25,-28 574.25,-40 574.25,-40 574.25,-46 568.25,-52 562.25,-52"/>
<text xml:space="preserve" text-anchor="middle" x="540" y="-30.3" font-family="Times,serif" font-size="11.00">Transaction</text>
</g>
<!-- a11 -->
<g id="node6" class="node">
<title>a11</title>
<polygon fill="none" stroke="black" stroke-width="2" points="460,-116 372,-116 372,-70 460,-70 460,-116"/>
<text xml:space="preserve" text-anchor="start" x="396.12" y="-98.55" font-family="Times,serif" font-size="11.00">Block 11</text>
<text xml:space="preserve" text-anchor="start" x="396.5" y="-80.05" font-family="Times,serif" font-size="11.00">coinbase</text>
<polygon fill="black" stroke="black" points="381,-93.5 381,-93.5 452,-93.5 452,-93.5 381,-93.5"/>
</g>
<!-- tx2&#45;&gt;a11 -->
<g id="edge8" class="edge">
<title>tx2&#45;&gt;a11</title>
<path fill="none" stroke="black" d="M505.46,-34.25C468.77,-34.25 416,-34.25 416,-34.25 416,-34.25 416,-58.27 416,-58.27"/>
<polygon fill="black" stroke="black" points="412.5,-58.27 416,-68.27 419.5,-58.27 412.5,-58.27"/>
</g>
<!-- a20 -->
<g id="node7" class="node">
<title>a20</title>
<polygon fill="none" stroke="black" stroke-width="2" points="584,-116 496,-116 496,-70 584,-70 584,-116"/>
<text xml:space="preserve" text-anchor="start" x="520.12" y="-98.55" font-family="Times,serif" font-size="11.00">Block 20</text>
<text xml:space="preserve" text-anchor="start" x="538.5" y="-80.05" font-family="Times,serif" font-size="11.00"> </text>
<polygon fill="black" stroke="black" points="505,-93.5 505,-93.5 576,-93.5 576,-93.5 505,-93.5"/>
</g>
<!-- tx2&#45;&gt;a20 -->
<g id="edge7" class="edge">
<title>tx2&#45;&gt;a20</title>
<path fill="none" stroke="black" stroke-dasharray="5,2" d="M540,-52.34C540,-57.89 540,-64.06 540,-69.87"/>
</g>
<!-- 1 -->
<g id="node3" class="node">
<title>1</title>
<polygon fill="none" stroke="black" stroke-width="2" points="88,-126 0,-126 0,-80 88,-80 88,-126"/>
<text xml:space="preserve" text-anchor="start" x="26.75" y="-108.55" font-family="Times,serif" font-size="11.00">Block 1</text>
<text xml:space="preserve" text-anchor="start" x="42.5" y="-90.05" font-family="Times,serif" font-size="11.00"> </text>
<polygon fill="black" stroke="black" points="9,-103.5 9,-103.5 80,-103.5 80,-103.5 9,-103.5"/>
</g>
<!-- 1&#45;&gt;a2 -->
<g id="edge9" class="edge">
<title>1&#45;&gt;a2</title>
<path fill="none" stroke="black" d="M88.42,-103C88.42,-103 112.38,-103 112.38,-103"/>
<polygon fill="black" stroke="black" points="112.38,-106.5 122.38,-103 112.38,-99.5 112.38,-106.5"/>
</g>
<!-- b_dummy -->
<!-- 1&#45;&gt;b_dummy -->
<g id="edge10" class="edge">
<title>1&#45;&gt;b_dummy</title>
<path fill="none" stroke="black" d="M44,-126.32C44,-142.81 44,-162 44,-162 44,-162 168,-162 168,-162"/>
</g>
<!-- a10 -->
<g id="node5" class="node">
<title>a10</title>
<polygon fill="none" stroke="black" stroke-width="2" points="336,-116 248,-116 248,-70 336,-70 336,-116"/>
<text xml:space="preserve" text-anchor="start" x="272.12" y="-98.55" font-family="Times,serif" font-size="11.00">Block 10</text>
<text xml:space="preserve" text-anchor="start" x="290.5" y="-80.05" font-family="Times,serif" font-size="11.00"> </text>
<polygon fill="black" stroke="black" points="257,-93.5 257,-93.5 328,-93.5 328,-93.5 257,-93.5"/>
</g>
<!-- a2&#45;&gt;a10 -->
<g id="edge1" class="edge">
<title>a2&#45;&gt;a10</title>
<path fill="none" stroke="black" stroke-dasharray="5,2" d="M212.42,-98C212.42,-98 236.38,-98 236.38,-98"/>
<polygon fill="black" stroke="black" points="236.38,-101.5 246.38,-98 236.38,-94.5 236.38,-101.5"/>
</g>
<!-- a10&#45;&gt;a11 -->
<g id="edge2" class="edge">
<title>a10&#45;&gt;a11</title>
<path fill="none" stroke="black" d="M336.42,-93C336.42,-93 360.38,-93 360.38,-93"/>
<polygon fill="black" stroke="black" points="360.38,-96.5 370.38,-93 360.38,-89.5 360.38,-96.5"/>
</g>
<!-- a11&#45;&gt;a20 -->
<g id="edge3" class="edge">
<title>a11&#45;&gt;a20</title>
<path fill="none" stroke="black" stroke-dasharray="5,2" d="M460.42,-93C460.42,-93 484.38,-93 484.38,-93"/>
<polygon fill="black" stroke="black" points="484.38,-96.5 494.38,-93 484.38,-89.5 484.38,-96.5"/>
</g>
<!-- b2 -->
<g id="node9" class="node">
<title>b2</title>
<polygon fill="none" stroke="black" stroke-width="2" points="336,-180 248,-180 248,-134 336,-134 336,-180"/>
<text xml:space="preserve" text-anchor="start" x="274.75" y="-162.55" font-family="Times,serif" font-size="11.00">Block 2</text>
<text xml:space="preserve" text-anchor="start" x="265" y="-144.05" font-family="Times,serif" font-size="11.00">&gt;50 sat/byte</text>
<polygon fill="black" stroke="black" points="257,-157.5 257,-157.5 328,-157.5 328,-157.5 257,-157.5"/>
</g>
<!-- b_dummy&#45;&gt;b2 -->
<g id="edge4" class="edge">
<title>b_dummy&#45;&gt;b2</title>
<path fill="none" stroke="black" d="M168,-162C168,-162 236.07,-162 236.07,-162"/>
<polygon fill="black" stroke="black" points="236.07,-165.5 246.07,-162 236.07,-158.5 236.07,-165.5"/>
</g>
<!-- b3 -->
<g id="node10" class="node">
<title>b3</title>
<polygon fill="none" stroke="black" stroke-width="2" points="584,-180 496,-180 496,-134 584,-134 584,-180"/>
<text xml:space="preserve" text-anchor="start" x="522.75" y="-162.55" font-family="Times,serif" font-size="11.00">Block 3</text>
<text xml:space="preserve" text-anchor="start" x="513" y="-144.05" font-family="Times,serif" font-size="11.00">&gt;50 sat/byte</text>
<polygon fill="black" stroke="black" points="505,-157.5 505,-157.5 576,-157.5 576,-157.5 505,-157.5"/>
</g>
<!-- b2&#45;&gt;b3 -->
<g id="edge5" class="edge">
<title>b2&#45;&gt;b3</title>
<path fill="none" stroke="black" d="M336.34,-157C336.34,-157 484.12,-157 484.12,-157"/>
<polygon fill="black" stroke="black" points="484.12,-160.5 494.12,-157 484.12,-153.5 484.12,-160.5"/>
</g>
</g>
</svg>
