<?xml version="1.0" encoding="UTF-8" standalone="no"?>
<!DOCTYPE svg PUBLIC "-//W3C//DTD SVG 1.1//EN"
 "http://www.w3.org/Graphics/SVG/1.1/DTD/svg11.dtd">
<!-- Generated by graphviz version 3.0.0 (20220226.1711)
 -->
<!-- Pages: 1 -->
<svg width="536pt" height="213pt"
 viewBox="0.00 0.00 536.00 213.00" xmlns="http://www.w3.org/2000/svg" xmlns:xlink="http://www.w3.org/1999/xlink">
<g id="graph0" class="graph" transform="scale(1 1) rotate(0) translate(4 209)">
<polygon fill="white" stroke="none" points="-4,4 -4,-209 532,-209 532,4 -4,4"/>
<g id="clust1" class="cluster">
<title>cluster_split</title>
<polygon fill="none" stroke="black" stroke-dasharray="5,2" points="100,-8 100,-197 520,-197 520,-8 100,-8"/>
<text text-anchor="middle" x="310" y="-181.8" font-family="Times,serif" font-size="14.00">Chainsplit</text>
</g>
<!-- tx -->
<g id="node1" class="node">
<title>tx</title>
<text text-anchor="start" x="119" y="-96.2" font-family="Times,serif" font-size="11.00"> Transaction </text>
<text text-anchor="start" x="126.5" y="-80.2" font-family="Times,serif" font-size="11.00">3 sat/byte</text>
<polygon fill="black" stroke="black" points="116,-91 116,-91 180,-91 180,-91 116,-91"/>
<path fill="none" stroke="black" d="M127.33,-74C127.33,-74 168.67,-74 168.67,-74 174.33,-74 180,-79.67 180,-85.33 180,-85.33 180,-96.67 180,-96.67 180,-102.33 174.33,-108 168.67,-108 168.67,-108 127.33,-108 127.33,-108 121.67,-108 116,-102.33 116,-96.67 116,-96.67 116,-85.33 116,-85.33 116,-79.67 121.67,-74 127.33,-74"/>
</g>
<!-- a2 -->
<g id="node4" class="node">
<title>a2</title>
<polygon fill="none" stroke="black" stroke-width="2" points="184,-166 112,-166 112,-130 184,-130 184,-166"/>
<text text-anchor="start" x="130.5" y="-153.2" font-family="Times,serif" font-size="11.00">Block 2</text>
<text text-anchor="start" x="123.5" y="-136.2" font-family="Times,serif" font-size="11.00">&gt;1 sat/byte</text>
<polygon fill="black" stroke="black" points="113,-148 113,-148 184,-148 184,-148 113,-148"/>
</g>
<!-- tx&#45;&gt;a2 -->
<g id="edge6" class="edge">
<title>tx&#45;&gt;a2</title>
<path fill="none" stroke="black" stroke-dasharray="5,2" d="M148,-112.22C148,-118.05 148,-124.31 148,-129.94"/>
</g>
<!-- tx2 -->
<g id="node2" class="node">
<title>tx2</title>
<path fill="none" stroke="black" d="M498,-112C498,-112 454,-112 454,-112 448,-112 442,-106 442,-100 442,-100 442,-88 442,-88 442,-82 448,-76 454,-76 454,-76 498,-76 498,-76 504,-76 510,-82 510,-88 510,-88 510,-100 510,-100 510,-106 504,-112 498,-112"/>
<text text-anchor="middle" x="476" y="-91.2" font-family="Times,serif" font-size="11.00">Transaction</text>
</g>
<!-- a11 -->
<g id="node6" class="node">
<title>a11</title>
<polygon fill="none" stroke="black" stroke-width="2" points="404,-166 332,-166 332,-130 404,-130 404,-166"/>
<text text-anchor="start" x="348" y="-153.2" font-family="Times,serif" font-size="11.00">Block 11</text>
<text text-anchor="start" x="348" y="-136.2" font-family="Times,serif" font-size="11.00">coinbase</text>
<polygon fill="black" stroke="black" points="333,-148 333,-148 404,-148 404,-148 333,-148"/>
</g>
<!-- tx2&#45;&gt;a11 -->
<g id="edge8" class="edge">
<title>tx2&#45;&gt;a11</title>
<path fill="none" stroke="black" d="M441.83,-94C410.19,-94 368,-94 368,-94 368,-94 368,-119.72 368,-119.72"/>
<polygon fill="black" stroke="black" points="364.5,-119.72 368,-129.72 371.5,-119.72 364.5,-119.72"/>
</g>
<!-- a20 -->
<g id="node7" class="node">
<title>a20</title>
<polygon fill="none" stroke="black" stroke-width="2" points="512,-166 440,-166 440,-130 512,-130 512,-166"/>
<text text-anchor="start" x="456" y="-153.2" font-family="Times,serif" font-size="11.00">Block 20</text>
<text text-anchor="start" x="474" y="-136.2" font-family="Times,serif" font-size="11.00"> </text>
<polygon fill="black" stroke="black" points="441,-148 441,-148 512,-148 512,-148 441,-148"/>
</g>
<!-- tx2&#45;&gt;a20 -->
<g id="edge7" class="edge">
<title>tx2&#45;&gt;a20</title>
<path fill="none" stroke="black" stroke-dasharray="5,2" d="M476,-112.28C476,-117.91 476,-124.11 476,-129.74"/>
</g>
<!-- 1 -->
<g id="node3" class="node">
<title>1</title>
<polygon fill="none" stroke="black" stroke-width="2" points="72,-166 0,-166 0,-130 72,-130 72,-166"/>
<text text-anchor="start" x="18.5" y="-153.2" font-family="Times,serif" font-size="11.00">Block 1</text>
<text text-anchor="start" x="34" y="-136.2" font-family="Times,serif" font-size="11.00"> </text>
<polygon fill="black" stroke="black" points="1,-148 1,-148 72,-148 72,-148 1,-148"/>
</g>
<!-- 1&#45;&gt;a2 -->
<g id="edge9" class="edge">
<title>1&#45;&gt;a2</title>
<path fill="none" stroke="black" d="M72.05,-148C72.05,-148 101.63,-148 101.63,-148"/>
<polygon fill="black" stroke="black" points="101.63,-151.5 111.63,-148 101.63,-144.5 101.63,-151.5"/>
</g>
<!-- b_dummy -->
<!-- 1&#45;&gt;b_dummy -->
<g id="edge10" class="edge">
<title>1&#45;&gt;b_dummy</title>
<path fill="none" stroke="black" d="M36,-129.94C36,-97.79 36,-34 36,-34 36,-34 148,-34 148,-34"/>
</g>
<!-- a10 -->
<g id="node5" class="node">
<title>a10</title>
<polygon fill="none" stroke="black" stroke-width="2" points="296,-166 224,-166 224,-130 296,-130 296,-166"/>
<text text-anchor="start" x="240" y="-153.2" font-family="Times,serif" font-size="11.00">Block 10</text>
<text text-anchor="start" x="258" y="-136.2" font-family="Times,serif" font-size="11.00"> </text>
<polygon fill="black" stroke="black" points="225,-148 225,-148 296,-148 296,-148 225,-148"/>
</g>
<!-- a2&#45;&gt;a10 -->
<g id="edge1" class="edge">
<title>a2&#45;&gt;a10</title>
<path fill="none" stroke="black" stroke-dasharray="5,2" d="M184.05,-148C184.05,-148 213.63,-148 213.63,-148"/>
<polygon fill="black" stroke="black" points="213.63,-151.5 223.63,-148 213.63,-144.5 213.63,-151.5"/>
</g>
<!-- a10&#45;&gt;a11 -->
<g id="edge2" class="edge">
<title>a10&#45;&gt;a11</title>
<path fill="none" stroke="black" d="M296.26,-148C296.26,-148 321.65,-148 321.65,-148"/>
<polygon fill="black" stroke="black" points="321.65,-151.5 331.65,-148 321.65,-144.5 321.65,-151.5"/>
</g>
<!-- a11&#45;&gt;a20 -->
<g id="edge3" class="edge">
<title>a11&#45;&gt;a20</title>
<path fill="none" stroke="black" stroke-dasharray="5,2" d="M404.26,-148C404.26,-148 429.65,-148 429.65,-148"/>
<polygon fill="black" stroke="black" points="429.65,-151.5 439.65,-148 429.65,-144.5 429.65,-151.5"/>
</g>
<!-- b2 -->
<g id="node9" class="node">
<title>b2</title>
<polygon fill="none" stroke="black" stroke-width="2" points="296,-52 224,-52 224,-16 296,-16 296,-52"/>
<text text-anchor="start" x="242.5" y="-39.2" font-family="Times,serif" font-size="11.00">Block 2</text>
<text text-anchor="start" x="232.5" y="-22.2" font-family="Times,serif" font-size="11.00">&gt;50 sat/byte</text>
<polygon fill="black" stroke="black" points="225,-34 225,-34 296,-34 296,-34 225,-34"/>
</g>
<!-- b_dummy&#45;&gt;b2 -->
<g id="edge4" class="edge">
<title>b_dummy&#45;&gt;b2</title>
<path fill="none" stroke="black" d="M148,-34C148,-34 213.95,-34 213.95,-34"/>
<polygon fill="black" stroke="black" points="213.95,-37.5 223.95,-34 213.95,-30.5 213.95,-37.5"/>
</g>
<!-- b3 -->
<g id="node10" class="node">
<title>b3</title>
<polygon fill="none" stroke="black" stroke-width="2" points="512,-52 440,-52 440,-16 512,-16 512,-52"/>
<text text-anchor="start" x="458.5" y="-39.2" font-family="Times,serif" font-size="11.00">Block 3</text>
<text text-anchor="start" x="448.5" y="-22.2" font-family="Times,serif" font-size="11.00">&gt;50 sat/byte</text>
<polygon fill="black" stroke="black" points="441,-34 441,-34 512,-34 512,-34 441,-34"/>
</g>
<!-- b2&#45;&gt;b3 -->
<g id="edge5" class="edge">
<title>b2&#45;&gt;b3</title>
<path fill="none" stroke="black" d="M296.15,-34C296.15,-34 429.73,-34 429.73,-34"/>
<polygon fill="black" stroke="black" points="429.73,-37.5 439.73,-34 429.73,-30.5 429.73,-37.5"/>
</g>
</g>
</svg>
